<svg version="1" xmlns="http://www.w3.org/2000/svg" width="682.667" height="682.667" viewBox="0 0 512.000000 512.000000"><path d="M52 1.6c-18.7 4-36.2 17.9-45.1 35.9C-.4 52.4 0 37.5 0 256s-.4 203.6 6.9 218.5c9 18.2 26.5 32 45.6 36 10.5 2.2 396.5 2.2 407 0 19.1-4 36.6-17.8 45.6-36 7.3-14.9 6.9 0 6.9-218.5s.4-203.6-6.9-218.5c-9-18.2-26.5-32-45.6-36C449.3-.6 62-.6 52 1.6zm246 70.3c6.9 1.1 14.6 2.5 17 3.2 2.9.8 17.4 1.4 40 1.8 33.9.6 35.7.7 39.5 2.8 4.7 2.5 8.6 6.5 10.9 11 1.4 2.8 1.6 8.5 1.6 44.1v41l11.3.4c12.6.4 16.5 1.8 19.7 7.1 1.9 3 2 5.2 2 32.3 0 26.5-.2 29.2-1.7 30.6-2.5 2.2-9.4 3.1-14.1 1.8-7.5-2-7.3-.9-6.5-30.5l.6-26.4-2.7-1.1c-1.5-.5-4.1-1-5.7-1H407v103.9c0 70.9-.3 104.9-1.1 106.8-2.4 6.4-11.1 12.8-19.2 14.1l-4.2.7-.5 10.8c-.5 10-.7 10.8-3.3 13.4l-2.7 2.8h-42l-3.2-3.3c-3.2-3.2-3.3-3.4-3.6-13.7l-.4-10.5H190v9.5c0 17.3-1.8 18.5-28.3 18.5-17.5 0-18.6-.1-21.8-2.3-4.9-3.3-5.9-6-5.9-16.3v-9.1l-5.9-.6c-10.8-.9-20-7.1-22.1-14.6-.6-2.3-1-42-1-106.9V189h-3.6c-7.7 0-7.4-1.2-7.4 29v27l-2.6 1.7c-3.6 2.3-14.1 2.4-17.7 0L71 245v-28c0-31.7.4-34.3 6.8-38.2 3-1.9 5.4-2.3 15.4-2.6l11.7-.4.3-41.8.3-41.8 3-4.3c1.7-2.4 5.3-5.7 7.9-7.4l4.9-3 33.1-.6c28.4-.4 34.5-.8 43.1-2.6 5.5-1.2 14.3-2.6 19.5-3.2 5.2-.6 10.9-1.3 12.5-1.5 1.7-.2 14.9-.3 29.5-.1 20.6.3 29.3.8 39 2.4z"/><path d="M164.3 101.7c-3.4.7-8.1 5.9-8.9 9.9-.9 5 1.1 10.8 4.7 13.8l3.1 2.6h93.6c74.3-.1 94.2-.3 96-1.4 8.8-4.8 8-20.3-1.3-24.2-2.9-1.2-17.2-1.4-94.2-1.3-49.9.1-91.8.4-93 .6zM131.5 159c-5.1 2-4.9-.5-5.3 71l-.4 66.7 3.3 2.1c11.5 7 42.8 11.3 96.5 13.3 74.8 2.7 148.5-4.1 159.1-14.7l2.3-2.3-.1-63.8c0-68.1-.1-69.6-4.9-72-2-1-28.4-1.3-125.5-1.2-67.6 0-123.9.4-125 .9zM125.5 336.8c-7.6 3.6-10.5 11.9-6.3 18.1 8.5 12.6 29.8 8.3 30.2-6 .2-10.2-13.3-17.1-23.9-12.1zM374 336.1c-6 2.4-10.5 9.2-9.6 14.4 1.4 7.1 7.8 11.8 16.1 11.8 16.3 0 22.3-17.7 8.5-25-4.6-2.4-10.7-2.9-15-1.2zM167.1 353.4c-7.7 4.3-6 14.1 2.9 16.7 4.7 1.4 9 0 12-3.9 4.8-6 0-14.2-8.2-14.2-2.4.1-5.4.7-6.7 1.4zM332.4 355.4c-3.9 3.9-4.2 5.8-1.4 10.3 4 6.6 15 6.6 19.1-.1 2.7-4.4 2.4-6.3-1.5-10.2-2.9-2.9-4.1-3.4-8.1-3.4s-5.2.5-8.1 3.4zM200.3 374.5c-6.5 2.8-8 11.6-2.7 16.6l2.6 2.4 55.5.3 55.5.2 3.4-3.4c5.6-5.6 4.2-13.1-3.2-16.2-4.9-2.1-106.4-2-111.1.1z"/></svg>