<?xml version="1.0" encoding="UTF-8"?>
<svg width="112px" height="67px" viewBox="0 0 112 67" version="1.1" xmlns="http://www.w3.org/2000/svg" xmlns:xlink="http://www.w3.org/1999/xlink">
    <!-- Generator: Sketch 58 (84663) - https://sketch.com -->
    <title>Group 2</title>
    <desc>Created with Sketch.</desc>
    <g id="Page-1" stroke="none" stroke-width="1" fill="none" fill-rule="evenodd">
        <g id="Group-2">
            <g id="noun_link_793604" transform="translate(0.000000, 1.000000)" fill="#6E7B88" fill-rule="nonzero">
                <g id="Group">
                    <path d="M5.5,18 L2,14.5 L8.9,7.6 L11,9.7 L12.4,8.3 L10.3,6.2 C9.5,5.4 8.2,5.4 7.5,6.2 L0.6,13.1 C-0.2,13.9 -0.2,15.1 0.6,15.9 L4.1,19.4 C4.5,19.8 5,20 5.5,20 C6,20 6.5,19.8 6.9,19.4 L9.6,16.7 L8.2,15.3 L5.5,18 Z" id="Path"></path>
                    <path d="M19.4,4.1 L15.9,0.6 C15.1,-0.2 13.9,-0.2 13.1,0.6 L10.4,3.3 L11.8,4.7 L14.5,2 L18,5.5 L11.1,12.4 L9,10.3 L7.6,11.7 L9.7,13.8 C10.1,14.2 10.6,14.4 11.1,14.4 C11.6,14.4 12.1,14.2 12.5,13.8 L19.4,6.9 C20.2,6.2 20.2,4.9 19.4,4.1 Z" id="Path"></path>
                </g>
            </g>
            <g id="noun_avatar_794116-(1)" transform="translate(24.000000, 1.000000)" fill="#6E7B88" fill-rule="nonzero">
                <g id="Group">
                    <path d="M17.7,12.6 C15.4,10.3 12.3,9 9,9 C5.7,9 2.6,10.3 0.3,12.6 L0,12.9 L0,20 L18,20 L18,12.9 L17.7,12.6 Z M16,18 L2,18 L2,13.8 C3.9,12 6.4,11 9,11 C11.6,11 14.1,12 16,13.7 L16,18 Z" id="Shape"></path>
                    <path d="M9,8 C11.2,8 13,6.2 13,4 C13,1.8 11.2,0 9,0 C6.8,0 5,1.8 5,4 C5,6.2 6.8,8 9,8 Z M9,2 C10.1,2 11,2.9 11,4 C11,5.1 10.1,6 9,6 C7.9,6 7,5.1 7,4 C7,2.9 7.9,2 9,2 Z" id="Shape"></path>
                </g>
            </g>
            <g id="noun_Plus_794419" transform="translate(69.000000, 1.000000)" fill="#6E7B88" fill-rule="nonzero">
                <g id="Group">
                    <path d="M10,0 C4.5,0 0,4.5 0,10 C0,15.5 4.5,20 10,20 C15.5,20 20,15.5 20,10 C20,4.5 15.5,0 10,0 Z M10,18 C5.6,18 2,14.4 2,10 C2,5.6 5.6,2 10,2 C14.4,2 18,5.6 18,10 C18,14.4 14.4,18 10,18 Z" id="Shape"></path>
                    <polygon id="Path" points="11 5 9 5 9 9 5 9 5 11 9 11 9 15 11 15 11 11 15 11 15 9 11 9"></polygon>
                </g>
            </g>
            <g id="noun_link_793604" transform="translate(0.000000, 24.000000)" fill="#FFFFFF" fill-rule="nonzero">
                <g id="Group">
                    <path d="M5.5,18 L2,14.5 L8.9,7.6 L11,9.7 L12.4,8.3 L10.3,6.2 C9.5,5.4 8.2,5.4 7.5,6.2 L0.6,13.1 C-0.2,13.9 -0.2,15.1 0.6,15.9 L4.1,19.4 C4.5,19.8 5,20 5.5,20 C6,20 6.5,19.8 6.9,19.4 L9.6,16.7 L8.2,15.3 L5.5,18 Z" id="Path"></path>
                    <path d="M19.4,4.1 L15.9,0.6 C15.1,-0.2 13.9,-0.2 13.1,0.6 L10.4,3.3 L11.8,4.7 L14.5,2 L18,5.5 L11.1,12.4 L9,10.3 L7.6,11.7 L9.7,13.8 C10.1,14.2 10.6,14.4 11.1,14.4 C11.6,14.4 12.1,14.2 12.5,13.8 L19.4,6.9 C20.2,6.2 20.2,4.9 19.4,4.1 Z" id="Path"></path>
                </g>
            </g>
            <g id="noun_avatar_794116-(1)" transform="translate(24.000000, 24.000000)" fill="#FFFFFF" fill-rule="nonzero">
                <g id="Group">
                    <path d="M17.7,12.6 C15.4,10.3 12.3,9 9,9 C5.7,9 2.6,10.3 0.3,12.6 L0,12.9 L0,20 L18,20 L18,12.9 L17.7,12.6 Z M16,18 L2,18 L2,13.8 C3.9,12 6.4,11 9,11 C11.6,11 14.1,12 16,13.7 L16,18 Z" id="Shape"></path>
                    <path d="M9,8 C11.2,8 13,6.2 13,4 C13,1.8 11.2,0 9,0 C6.8,0 5,1.8 5,4 C5,6.2 6.8,8 9,8 Z M9,2 C10.1,2 11,2.9 11,4 C11,5.1 10.1,6 9,6 C7.9,6 7,5.1 7,4 C7,2.9 7.9,2 9,2 Z" id="Shape"></path>
                </g>
            </g>
            <g id="noun_Plus_794419" transform="translate(69.000000, 24.000000)" fill="#FFFFFF" fill-rule="nonzero">
                <g id="Group">
                    <path d="M10,0 C4.5,0 0,4.5 0,10 C0,15.5 4.5,20 10,20 C15.5,20 20,15.5 20,10 C20,4.5 15.5,0 10,0 Z M10,18 C5.6,18 2,14.4 2,10 C2,5.6 5.6,2 10,2 C14.4,2 18,5.6 18,10 C18,14.4 14.4,18 10,18 Z" id="Shape"></path>
                    <polygon id="Path" points="11 5 9 5 9 9 5 9 5 11 9 11 9 15 11 15 11 11 15 11 15 9 11 9"></polygon>
                </g>
            </g>
            <g id="noun_link_793604" transform="translate(0.000000, 47.000000)" fill="#000000" fill-rule="nonzero">
                <g id="Group">
                    <path d="M5.5,18 L2,14.5 L8.9,7.6 L11,9.7 L12.4,8.3 L10.3,6.2 C9.5,5.4 8.2,5.4 7.5,6.2 L0.6,13.1 C-0.2,13.9 -0.2,15.1 0.6,15.9 L4.1,19.4 C4.5,19.8 5,20 5.5,20 C6,20 6.5,19.8 6.9,19.4 L9.6,16.7 L8.2,15.3 L5.5,18 Z" id="Path"></path>
                    <path d="M19.4,4.1 L15.9,0.6 C15.1,-0.2 13.9,-0.2 13.1,0.6 L10.4,3.3 L11.8,4.7 L14.5,2 L18,5.5 L11.1,12.4 L9,10.3 L7.6,11.7 L9.7,13.8 C10.1,14.2 10.6,14.4 11.1,14.4 C11.6,14.4 12.1,14.2 12.5,13.8 L19.4,6.9 C20.2,6.2 20.2,4.9 19.4,4.1 Z" id="Path"></path>
                </g>
            </g>
            <g id="noun_avatar_794116-(1)" transform="translate(24.000000, 47.000000)" fill="#000000" fill-rule="nonzero">
                <g id="Group">
                    <path d="M17.7,12.6 C15.4,10.3 12.3,9 9,9 C5.7,9 2.6,10.3 0.3,12.6 L0,12.9 L0,20 L18,20 L18,12.9 L17.7,12.6 Z M16,18 L2,18 L2,13.8 C3.9,12 6.4,11 9,11 C11.6,11 14.1,12 16,13.7 L16,18 Z" id="Shape"></path>
                    <path d="M9,8 C11.2,8 13,6.2 13,4 C13,1.8 11.2,0 9,0 C6.8,0 5,1.8 5,4 C5,6.2 6.8,8 9,8 Z M9,2 C10.1,2 11,2.9 11,4 C11,5.1 10.1,6 9,6 C7.9,6 7,5.1 7,4 C7,2.9 7.9,2 9,2 Z" id="Shape"></path>
                </g>
            </g>
            <g id="noun_Plus_794419" transform="translate(69.000000, 47.000000)" fill="#000000" fill-rule="nonzero">
                <g id="Group">
                    <path d="M10,0 C4.5,0 0,4.5 0,10 C0,15.5 4.5,20 10,20 C15.5,20 20,15.5 20,10 C20,4.5 15.5,0 10,0 Z M10,18 C5.6,18 2,14.4 2,10 C2,5.6 5.6,2 10,2 C14.4,2 18,5.6 18,10 C18,14.4 14.4,18 10,18 Z" id="Shape"></path>
                    <polygon id="Path" points="11 5 9 5 9 9 5 9 5 11 9 11 9 15 11 15 11 11 15 11 15 9 11 9"></polygon>
                </g>
            </g>
            <g id="noun_map-pin_792168" transform="translate(47.000000, 47.000000)" fill="#000000" fill-rule="nonzero">
                <g id="Group">
                    <path d="M13.7,2.3 C12.1,0.8 10.1,0 8,0 C5.9,0 3.9,0.8 2.3,2.3 C0.8,3.8 0,5.8 0,8 C0,10.1 0.8,12.2 2.3,13.6 L8,20 L13.7,13.6 C15.2,12.1 16,10.1 16,8 C16,5.8 15.2,3.8 13.7,2.3 Z M12.2,12.3 L8,17 L3.8,12.2 C2.6,11.1 2,9.6 2,8 C2,6.4 2.6,4.9 3.8,3.8 C4.9,2.6 6.4,2 8,2 C9.6,2 11.1,2.6 12.2,3.8 C13.4,4.9 14,6.4 14,8 C14,9.6 13.4,11.1 12.2,12.3 Z" id="Shape"></path>
                </g>
            </g>
            <g id="noun_map-pin_792168" transform="translate(47.000000, 24.000000)" fill="#FFFFFF" fill-rule="nonzero">
                <g id="Group">
                    <path d="M13.7,2.3 C12.1,0.8 10.1,0 8,0 C5.9,0 3.9,0.8 2.3,2.3 C0.8,3.8 0,5.8 0,8 C0,10.1 0.8,12.2 2.3,13.6 L8,20 L13.7,13.6 C15.2,12.1 16,10.1 16,8 C16,5.8 15.2,3.8 13.7,2.3 Z M12.2,12.3 L8,17 L3.8,12.2 C2.6,11.1 2,9.6 2,8 C2,6.4 2.6,4.9 3.8,3.8 C4.9,2.6 6.4,2 8,2 C9.6,2 11.1,2.6 12.2,3.8 C13.4,4.9 14,6.4 14,8 C14,9.6 13.4,11.1 12.2,12.3 Z" id="Shape"></path>
                </g>
            </g>
            <g id="noun_map-pin_792168" transform="translate(47.000000, 1.000000)" fill="#6E7B88" fill-rule="nonzero">
                <g id="Group">
                    <path d="M13.7,2.3 C12.1,0.8 10.1,0 8,0 C5.9,0 3.9,0.8 2.3,2.3 C0.8,3.8 0,5.8 0,8 C0,10.1 0.8,12.2 2.3,13.6 L8,20 L13.7,13.6 C15.2,12.1 16,10.1 16,8 C16,5.8 15.2,3.8 13.7,2.3 Z M12.2,12.3 L8,17 L3.8,12.2 C2.6,11.1 2,9.6 2,8 C2,6.4 2.6,4.9 3.8,3.8 C4.9,2.6 6.4,2 8,2 C9.6,2 11.1,2.6 12.2,3.8 C13.4,4.9 14,6.4 14,8 C14,9.6 13.4,11.1 12.2,12.3 Z" id="Shape"></path>
                </g>
            </g>
            <circle id="Oval" fill="#6E7B88" cx="55" cy="9" r="2"></circle>
            <circle id="Oval" fill="#FFFFFF" cx="55" cy="32" r="2"></circle>
            <circle id="Oval" fill="#000000" cx="55" cy="54" r="2"></circle>
            <g id="noun_Upload_799484" transform="translate(93.000000, 46.000000)" fill="#000000" fill-rule="nonzero">
                <g id="Group">
                    <polygon id="Path" points="10 17 10 10.8 11.6 12.3 13 10.9 9 6.9 5 10.9 6.4 12.3 8 10.8 8 17"></polygon>
                    <rect id="Rectangle" x="1" y="19" width="16" height="2"></rect>
                    <path d="M4.1,14.9 C1.4,12.2 1.4,7.7 4.1,5 C6.8,2.3 11.3,2.3 14,5 C16.7,7.7 16.7,12.2 14,14.9 L15.4,16.3 C18.9,12.8 18.9,7.1 15.4,3.6 C11.9,0.1 6.2,0.1 2.7,3.6 C-0.8,7.1 -0.8,12.8 2.7,16.3 L4.1,14.9 Z" id="Path"></path>
                </g>
            </g>
            <g id="noun_Upload_799484" transform="translate(93.000000, 23.000000)" fill="#FFFFFF" fill-rule="nonzero">
                <g id="Group">
                    <polygon id="Path" points="10 17 10 10.8 11.6 12.3 13 10.9 9 6.9 5 10.9 6.4 12.3 8 10.8 8 17"></polygon>
                    <rect id="Rectangle" x="1" y="19" width="16" height="2"></rect>
                    <path d="M4.1,14.9 C1.4,12.2 1.4,7.7 4.1,5 C6.8,2.3 11.3,2.3 14,5 C16.7,7.7 16.7,12.2 14,14.9 L15.4,16.3 C18.9,12.8 18.9,7.1 15.4,3.6 C11.9,0.1 6.2,0.1 2.7,3.6 C-0.8,7.1 -0.8,12.8 2.7,16.3 L4.1,14.9 Z" id="Path"></path>
                </g>
            </g>
            <g id="noun_Upload_799484" transform="translate(93.000000, 0.000000)" fill="#6E7B88" fill-rule="nonzero">
                <g id="Group">
                    <polygon id="Path" points="10 17 10 10.8 11.6 12.3 13 10.9 9 6.9 5 10.9 6.4 12.3 8 10.8 8 17"></polygon>
                    <rect id="Rectangle" x="1" y="19" width="16" height="2"></rect>
                    <path d="M4.1,14.9 C1.4,12.2 1.4,7.7 4.1,5 C6.8,2.3 11.3,2.3 14,5 C16.7,7.7 16.7,12.2 14,14.9 L15.4,16.3 C18.9,12.8 18.9,7.1 15.4,3.6 C11.9,0.1 6.2,0.1 2.7,3.6 C-0.8,7.1 -0.8,12.8 2.7,16.3 L4.1,14.9 Z" id="Path"></path>
                </g>
            </g>
        </g>
    </g>
</svg>