<?xml version="1.0" encoding="UTF-8"?>
<svg width="97px" height="48px" viewBox="0 0 97 48" version="1.1" xmlns="http://www.w3.org/2000/svg" xmlns:xlink="http://www.w3.org/1999/xlink">
    <!-- Generator: Sketch 58 (84663) - https://sketch.com -->
    <title>Group 2</title>
    <desc>Created with Sketch.</desc>
    <g id="Page-1" stroke="none" stroke-width="1" fill="none" fill-rule="evenodd">
        <g id="Group-2" transform="translate(0.000000, -3.000000)">
            <g id="noun_link_793604" transform="translate(0.000000, 3.546099)" fill="#6E7B88" fill-rule="nonzero">
                <g id="Group">
                    <path d="M3.90070922,12.7659574 L1.41843972,10.2836879 L6.31205674,5.39007092 L7.80141844,6.87943262 L8.79432624,5.88652482 L7.30496454,4.39716312 C6.73758865,3.82978723 5.81560284,3.82978723 5.31914894,4.39716312 L0.425531915,9.29078014 C-0.141843972,9.85815603 -0.141843972,10.7092199 0.425531915,11.2765957 L2.90780142,13.7588652 C3.19148936,14.0425532 3.54609929,14.1843972 3.90070922,14.1843972 C4.25531915,14.1843972 4.60992908,14.0425532 4.89361702,13.7588652 L6.80851064,11.8439716 L5.81560284,10.8510638 L3.90070922,12.7659574 Z" id="Path"></path>
                    <path d="M13.7588652,2.90780142 L11.2765957,0.425531915 C10.7092199,-0.141843972 9.85815603,-0.141843972 9.29078014,0.425531915 L7.37588652,2.34042553 L8.36879433,3.33333333 L10.2836879,1.41843972 L12.7659574,3.90070922 L7.87234043,8.79432624 L6.38297872,7.30496454 L5.39007092,8.29787234 L6.87943262,9.78723404 C7.16312057,10.070922 7.5177305,10.212766 7.87234043,10.212766 C8.22695035,10.212766 8.58156028,10.070922 8.86524823,9.78723404 L13.7588652,4.89361702 C14.3262411,4.39716312 14.3262411,3.4751773 13.7588652,2.90780142 Z" id="Path"></path>
                </g>
            </g>
            <g id="noun_avatar_794116-(1)" transform="translate(17.021277, 3.546099)" fill="#6E7B88" fill-rule="nonzero">
                <g id="Group">
                    <path d="M12.5531915,8.93617021 C10.9219858,7.30496454 8.72340426,6.38297872 6.38297872,6.38297872 C4.04255319,6.38297872 1.84397163,7.30496454 0.212765957,8.93617021 L0,9.14893617 L0,14.1843972 L12.7659574,14.1843972 L12.7659574,9.14893617 L12.5531915,8.93617021 Z M11.3475177,12.7659574 L1.41843972,12.7659574 L1.41843972,9.78723404 C2.76595745,8.5106383 4.53900709,7.80141844 6.38297872,7.80141844 C8.22695035,7.80141844 10,8.5106383 11.3475177,9.71631206 L11.3475177,12.7659574 Z" id="Shape"></path>
                    <path d="M6.38297872,5.67375887 C7.94326241,5.67375887 9.21985816,4.39716312 9.21985816,2.83687943 C9.21985816,1.27659574 7.94326241,0 6.38297872,0 C4.82269504,0 3.54609929,1.27659574 3.54609929,2.83687943 C3.54609929,4.39716312 4.82269504,5.67375887 6.38297872,5.67375887 Z M6.38297872,1.41843972 C7.16312057,1.41843972 7.80141844,2.05673759 7.80141844,2.83687943 C7.80141844,3.61702128 7.16312057,4.25531915 6.38297872,4.25531915 C5.60283688,4.25531915 4.96453901,3.61702128 4.96453901,2.83687943 C4.96453901,2.05673759 5.60283688,1.41843972 6.38297872,1.41843972 Z" id="Shape"></path>
                </g>
            </g>
            <g id="noun_Plus_794419" transform="translate(48.936170, 3.546099)" fill="#6E7B88" fill-rule="nonzero">
                <g id="Group">
                    <path d="M7.09219858,0 C3.19148936,0 0,3.19148936 0,7.09219858 C0,10.9929078 3.19148936,14.1843972 7.09219858,14.1843972 C10.9929078,14.1843972 14.1843972,10.9929078 14.1843972,7.09219858 C14.1843972,3.19148936 10.9929078,0 7.09219858,0 Z M7.09219858,12.7659574 C3.97163121,12.7659574 1.41843972,10.212766 1.41843972,7.09219858 C1.41843972,3.97163121 3.97163121,1.41843972 7.09219858,1.41843972 C10.212766,1.41843972 12.7659574,3.97163121 12.7659574,7.09219858 C12.7659574,10.212766 10.212766,12.7659574 7.09219858,12.7659574 Z" id="Shape"></path>
                    <polygon id="Path" points="7.80141844 3.54609929 6.38297872 3.54609929 6.38297872 6.38297872 3.54609929 6.38297872 3.54609929 7.80141844 6.38297872 7.80141844 6.38297872 10.6382979 7.80141844 10.6382979 7.80141844 7.80141844 10.6382979 7.80141844 10.6382979 6.38297872 7.80141844 6.38297872"></polygon>
                </g>
            </g>
            <g id="noun_Plus_794419" transform="translate(89.361702, 10.638298) rotate(-315.000000) translate(-89.361702, -10.638298) translate(82.269504, 3.546099)" fill="#6E7B88" fill-rule="nonzero">
                <g id="Group">
                    <path d="M7.09219858,0 C3.19148936,0 0,3.19148936 0,7.09219858 C0,10.9929078 3.19148936,14.1843972 7.09219858,14.1843972 C10.9929078,14.1843972 14.1843972,10.9929078 14.1843972,7.09219858 C14.1843972,3.19148936 10.9929078,0 7.09219858,0 Z M7.09219858,12.7659574 C3.97163121,12.7659574 1.41843972,10.212766 1.41843972,7.09219858 C1.41843972,3.97163121 3.97163121,1.41843972 7.09219858,1.41843972 C10.212766,1.41843972 12.7659574,3.97163121 12.7659574,7.09219858 C12.7659574,10.212766 10.212766,12.7659574 7.09219858,12.7659574 Z" id="Shape"></path>
                    <polygon id="Path" points="7.80141844 3.54609929 6.38297872 3.54609929 6.38297872 6.38297872 3.54609929 6.38297872 3.54609929 7.80141844 6.38297872 7.80141844 6.38297872 10.6382979 7.80141844 10.6382979 7.80141844 7.80141844 10.6382979 7.80141844 10.6382979 6.38297872 7.80141844 6.38297872"></polygon>
                </g>
            </g>
            <g id="noun_link_793604" transform="translate(0.000000, 19.858156)" fill="#FFFFFF" fill-rule="nonzero">
                <g id="Group">
                    <path d="M3.90070922,12.7659574 L1.41843972,10.2836879 L6.31205674,5.39007092 L7.80141844,6.87943262 L8.79432624,5.88652482 L7.30496454,4.39716312 C6.73758865,3.82978723 5.81560284,3.82978723 5.31914894,4.39716312 L0.425531915,9.29078014 C-0.141843972,9.85815603 -0.141843972,10.7092199 0.425531915,11.2765957 L2.90780142,13.7588652 C3.19148936,14.0425532 3.54609929,14.1843972 3.90070922,14.1843972 C4.25531915,14.1843972 4.60992908,14.0425532 4.89361702,13.7588652 L6.80851064,11.8439716 L5.81560284,10.8510638 L3.90070922,12.7659574 Z" id="Path"></path>
                    <path d="M13.7588652,2.90780142 L11.2765957,0.425531915 C10.7092199,-0.141843972 9.85815603,-0.141843972 9.29078014,0.425531915 L7.37588652,2.34042553 L8.36879433,3.33333333 L10.2836879,1.41843972 L12.7659574,3.90070922 L7.87234043,8.79432624 L6.38297872,7.30496454 L5.39007092,8.29787234 L6.87943262,9.78723404 C7.16312057,10.070922 7.5177305,10.212766 7.87234043,10.212766 C8.22695035,10.212766 8.58156028,10.070922 8.86524823,9.78723404 L13.7588652,4.89361702 C14.3262411,4.39716312 14.3262411,3.4751773 13.7588652,2.90780142 Z" id="Path"></path>
                </g>
            </g>
            <g id="noun_avatar_794116-(1)" transform="translate(17.021277, 19.858156)" fill="#FFFFFF" fill-rule="nonzero">
                <g id="Group">
                    <path d="M12.5531915,8.93617021 C10.9219858,7.30496454 8.72340426,6.38297872 6.38297872,6.38297872 C4.04255319,6.38297872 1.84397163,7.30496454 0.212765957,8.93617021 L0,9.14893617 L0,14.1843972 L12.7659574,14.1843972 L12.7659574,9.14893617 L12.5531915,8.93617021 Z M11.3475177,12.7659574 L1.41843972,12.7659574 L1.41843972,9.78723404 C2.76595745,8.5106383 4.53900709,7.80141844 6.38297872,7.80141844 C8.22695035,7.80141844 10,8.5106383 11.3475177,9.71631206 L11.3475177,12.7659574 Z" id="Shape"></path>
                    <path d="M6.38297872,5.67375887 C7.94326241,5.67375887 9.21985816,4.39716312 9.21985816,2.83687943 C9.21985816,1.27659574 7.94326241,0 6.38297872,0 C4.82269504,0 3.54609929,1.27659574 3.54609929,2.83687943 C3.54609929,4.39716312 4.82269504,5.67375887 6.38297872,5.67375887 Z M6.38297872,1.41843972 C7.16312057,1.41843972 7.80141844,2.05673759 7.80141844,2.83687943 C7.80141844,3.61702128 7.16312057,4.25531915 6.38297872,4.25531915 C5.60283688,4.25531915 4.96453901,3.61702128 4.96453901,2.83687943 C4.96453901,2.05673759 5.60283688,1.41843972 6.38297872,1.41843972 Z" id="Shape"></path>
                </g>
            </g>
            <g id="noun_Plus_794419" transform="translate(48.936170, 19.858156)" fill="#FFFFFF" fill-rule="nonzero">
                <g id="Group">
                    <path d="M7.09219858,0 C3.19148936,0 0,3.19148936 0,7.09219858 C0,10.9929078 3.19148936,14.1843972 7.09219858,14.1843972 C10.9929078,14.1843972 14.1843972,10.9929078 14.1843972,7.09219858 C14.1843972,3.19148936 10.9929078,0 7.09219858,0 Z M7.09219858,12.7659574 C3.97163121,12.7659574 1.41843972,10.212766 1.41843972,7.09219858 C1.41843972,3.97163121 3.97163121,1.41843972 7.09219858,1.41843972 C10.212766,1.41843972 12.7659574,3.97163121 12.7659574,7.09219858 C12.7659574,10.212766 10.212766,12.7659574 7.09219858,12.7659574 Z" id="Shape"></path>
                    <polygon id="Path" points="7.80141844 3.54609929 6.38297872 3.54609929 6.38297872 6.38297872 3.54609929 6.38297872 3.54609929 7.80141844 6.38297872 7.80141844 6.38297872 10.6382979 7.80141844 10.6382979 7.80141844 7.80141844 10.6382979 7.80141844 10.6382979 6.38297872 7.80141844 6.38297872"></polygon>
                </g>
            </g>
            <g id="noun_Plus_794419" transform="translate(89.361702, 26.950355) rotate(-315.000000) translate(-89.361702, -26.950355) translate(82.269504, 19.858156)" fill="#FFFFFF" fill-rule="nonzero">
                <g id="Group">
                    <path d="M7.09219858,0 C3.19148936,0 0,3.19148936 0,7.09219858 C0,10.9929078 3.19148936,14.1843972 7.09219858,14.1843972 C10.9929078,14.1843972 14.1843972,10.9929078 14.1843972,7.09219858 C14.1843972,3.19148936 10.9929078,0 7.09219858,0 Z M7.09219858,12.7659574 C3.97163121,12.7659574 1.41843972,10.212766 1.41843972,7.09219858 C1.41843972,3.97163121 3.97163121,1.41843972 7.09219858,1.41843972 C10.212766,1.41843972 12.7659574,3.97163121 12.7659574,7.09219858 C12.7659574,10.212766 10.212766,12.7659574 7.09219858,12.7659574 Z" id="Shape"></path>
                    <polygon id="Path" points="7.80141844 3.54609929 6.38297872 3.54609929 6.38297872 6.38297872 3.54609929 6.38297872 3.54609929 7.80141844 6.38297872 7.80141844 6.38297872 10.6382979 7.80141844 10.6382979 7.80141844 7.80141844 10.6382979 7.80141844 10.6382979 6.38297872 7.80141844 6.38297872"></polygon>
                </g>
            </g>
            <g id="noun_link_793604" transform="translate(0.000000, 36.170213)" fill="#000000" fill-rule="nonzero">
                <g id="Group">
                    <path d="M3.90070922,12.7659574 L1.41843972,10.2836879 L6.31205674,5.39007092 L7.80141844,6.87943262 L8.79432624,5.88652482 L7.30496454,4.39716312 C6.73758865,3.82978723 5.81560284,3.82978723 5.31914894,4.39716312 L0.425531915,9.29078014 C-0.141843972,9.85815603 -0.141843972,10.7092199 0.425531915,11.2765957 L2.90780142,13.7588652 C3.19148936,14.0425532 3.54609929,14.1843972 3.90070922,14.1843972 C4.25531915,14.1843972 4.60992908,14.0425532 4.89361702,13.7588652 L6.80851064,11.8439716 L5.81560284,10.8510638 L3.90070922,12.7659574 Z" id="Path"></path>
                    <path d="M13.7588652,2.90780142 L11.2765957,0.425531915 C10.7092199,-0.141843972 9.85815603,-0.141843972 9.29078014,0.425531915 L7.37588652,2.34042553 L8.36879433,3.33333333 L10.2836879,1.41843972 L12.7659574,3.90070922 L7.87234043,8.79432624 L6.38297872,7.30496454 L5.39007092,8.29787234 L6.87943262,9.78723404 C7.16312057,10.070922 7.5177305,10.212766 7.87234043,10.212766 C8.22695035,10.212766 8.58156028,10.070922 8.86524823,9.78723404 L13.7588652,4.89361702 C14.3262411,4.39716312 14.3262411,3.4751773 13.7588652,2.90780142 Z" id="Path"></path>
                </g>
            </g>
            <g id="noun_avatar_794116-(1)" transform="translate(17.021277, 36.170213)" fill="#000000" fill-rule="nonzero">
                <g id="Group">
                    <path d="M12.5531915,8.93617021 C10.9219858,7.30496454 8.72340426,6.38297872 6.38297872,6.38297872 C4.04255319,6.38297872 1.84397163,7.30496454 0.212765957,8.93617021 L0,9.14893617 L0,14.1843972 L12.7659574,14.1843972 L12.7659574,9.14893617 L12.5531915,8.93617021 Z M11.3475177,12.7659574 L1.41843972,12.7659574 L1.41843972,9.78723404 C2.76595745,8.5106383 4.53900709,7.80141844 6.38297872,7.80141844 C8.22695035,7.80141844 10,8.5106383 11.3475177,9.71631206 L11.3475177,12.7659574 Z" id="Shape"></path>
                    <path d="M6.38297872,5.67375887 C7.94326241,5.67375887 9.21985816,4.39716312 9.21985816,2.83687943 C9.21985816,1.27659574 7.94326241,0 6.38297872,0 C4.82269504,0 3.54609929,1.27659574 3.54609929,2.83687943 C3.54609929,4.39716312 4.82269504,5.67375887 6.38297872,5.67375887 Z M6.38297872,1.41843972 C7.16312057,1.41843972 7.80141844,2.05673759 7.80141844,2.83687943 C7.80141844,3.61702128 7.16312057,4.25531915 6.38297872,4.25531915 C5.60283688,4.25531915 4.96453901,3.61702128 4.96453901,2.83687943 C4.96453901,2.05673759 5.60283688,1.41843972 6.38297872,1.41843972 Z" id="Shape"></path>
                </g>
            </g>
            <g id="noun_Plus_794419" transform="translate(48.936170, 36.170213)" fill="#000000" fill-rule="nonzero">
                <g id="Group">
                    <path d="M7.09219858,0 C3.19148936,0 0,3.19148936 0,7.09219858 C0,10.9929078 3.19148936,14.1843972 7.09219858,14.1843972 C10.9929078,14.1843972 14.1843972,10.9929078 14.1843972,7.09219858 C14.1843972,3.19148936 10.9929078,0 7.09219858,0 Z M7.09219858,12.7659574 C3.97163121,12.7659574 1.41843972,10.212766 1.41843972,7.09219858 C1.41843972,3.97163121 3.97163121,1.41843972 7.09219858,1.41843972 C10.212766,1.41843972 12.7659574,3.97163121 12.7659574,7.09219858 C12.7659574,10.212766 10.212766,12.7659574 7.09219858,12.7659574 Z" id="Shape"></path>
                    <polygon id="Path" points="7.80141844 3.54609929 6.38297872 3.54609929 6.38297872 6.38297872 3.54609929 6.38297872 3.54609929 7.80141844 6.38297872 7.80141844 6.38297872 10.6382979 7.80141844 10.6382979 7.80141844 7.80141844 10.6382979 7.80141844 10.6382979 6.38297872 7.80141844 6.38297872"></polygon>
                </g>
            </g>
            <g id="noun_Plus_794419" transform="translate(89.361702, 43.262411) rotate(-315.000000) translate(-89.361702, -43.262411) translate(82.269504, 36.170213)" fill="#000000" fill-rule="nonzero">
                <g id="Group">
                    <path d="M7.09219858,0 C3.19148936,0 0,3.19148936 0,7.09219858 C0,10.9929078 3.19148936,14.1843972 7.09219858,14.1843972 C10.9929078,14.1843972 14.1843972,10.9929078 14.1843972,7.09219858 C14.1843972,3.19148936 10.9929078,0 7.09219858,0 Z M7.09219858,12.7659574 C3.97163121,12.7659574 1.41843972,10.212766 1.41843972,7.09219858 C1.41843972,3.97163121 3.97163121,1.41843972 7.09219858,1.41843972 C10.212766,1.41843972 12.7659574,3.97163121 12.7659574,7.09219858 C12.7659574,10.212766 10.212766,12.7659574 7.09219858,12.7659574 Z" id="Shape"></path>
                    <polygon id="Path" points="7.80141844 3.54609929 6.38297872 3.54609929 6.38297872 6.38297872 3.54609929 6.38297872 3.54609929 7.80141844 6.38297872 7.80141844 6.38297872 10.6382979 7.80141844 10.6382979 7.80141844 7.80141844 10.6382979 7.80141844 10.6382979 6.38297872 7.80141844 6.38297872"></polygon>
                </g>
            </g>
            <g id="noun_map-pin_792168" transform="translate(33.333333, 36.170213)" fill="#000000" fill-rule="nonzero">
                <g id="Group">
                    <path d="M9.71631206,1.63120567 C8.58156028,0.567375887 7.16312057,0 5.67375887,0 C4.18439716,0 2.76595745,0.567375887 1.63120567,1.63120567 C0.567375887,2.69503546 0,4.11347518 0,5.67375887 C0,7.16312057 0.567375887,8.65248227 1.63120567,9.64539007 L5.67375887,14.1843972 L9.71631206,9.64539007 C10.7801418,8.58156028 11.3475177,7.16312057 11.3475177,5.67375887 C11.3475177,4.11347518 10.7801418,2.69503546 9.71631206,1.63120567 Z M8.65248227,8.72340426 L5.67375887,12.0567376 L2.69503546,8.65248227 C1.84397163,7.87234043 1.41843972,6.80851064 1.41843972,5.67375887 C1.41843972,4.53900709 1.84397163,3.4751773 2.69503546,2.69503546 C3.4751773,1.84397163 4.53900709,1.41843972 5.67375887,1.41843972 C6.80851064,1.41843972 7.87234043,1.84397163 8.65248227,2.69503546 C9.5035461,3.4751773 9.92907801,4.53900709 9.92907801,5.67375887 C9.92907801,6.80851064 9.5035461,7.87234043 8.65248227,8.72340426 Z" id="Shape"></path>
                </g>
            </g>
            <g id="noun_map-pin_792168" transform="translate(33.333333, 19.858156)" fill="#FFFFFF" fill-rule="nonzero">
                <g id="Group">
                    <path d="M9.71631206,1.63120567 C8.58156028,0.567375887 7.16312057,0 5.67375887,0 C4.18439716,0 2.76595745,0.567375887 1.63120567,1.63120567 C0.567375887,2.69503546 0,4.11347518 0,5.67375887 C0,7.16312057 0.567375887,8.65248227 1.63120567,9.64539007 L5.67375887,14.1843972 L9.71631206,9.64539007 C10.7801418,8.58156028 11.3475177,7.16312057 11.3475177,5.67375887 C11.3475177,4.11347518 10.7801418,2.69503546 9.71631206,1.63120567 Z M8.65248227,8.72340426 L5.67375887,12.0567376 L2.69503546,8.65248227 C1.84397163,7.87234043 1.41843972,6.80851064 1.41843972,5.67375887 C1.41843972,4.53900709 1.84397163,3.4751773 2.69503546,2.69503546 C3.4751773,1.84397163 4.53900709,1.41843972 5.67375887,1.41843972 C6.80851064,1.41843972 7.87234043,1.84397163 8.65248227,2.69503546 C9.5035461,3.4751773 9.92907801,4.53900709 9.92907801,5.67375887 C9.92907801,6.80851064 9.5035461,7.87234043 8.65248227,8.72340426 Z" id="Shape"></path>
                </g>
            </g>
            <g id="noun_map-pin_792168" transform="translate(33.333333, 3.546099)" fill="#6E7B88" fill-rule="nonzero">
                <g id="Group">
                    <path d="M9.71631206,1.63120567 C8.58156028,0.567375887 7.16312057,0 5.67375887,0 C4.18439716,0 2.76595745,0.567375887 1.63120567,1.63120567 C0.567375887,2.69503546 0,4.11347518 0,5.67375887 C0,7.16312057 0.567375887,8.65248227 1.63120567,9.64539007 L5.67375887,14.1843972 L9.71631206,9.64539007 C10.7801418,8.58156028 11.3475177,7.16312057 11.3475177,5.67375887 C11.3475177,4.11347518 10.7801418,2.69503546 9.71631206,1.63120567 Z M8.65248227,8.72340426 L5.67375887,12.0567376 L2.69503546,8.65248227 C1.84397163,7.87234043 1.41843972,6.80851064 1.41843972,5.67375887 C1.41843972,4.53900709 1.84397163,3.4751773 2.69503546,2.69503546 C3.4751773,1.84397163 4.53900709,1.41843972 5.67375887,1.41843972 C6.80851064,1.41843972 7.87234043,1.84397163 8.65248227,2.69503546 C9.5035461,3.4751773 9.92907801,4.53900709 9.92907801,5.67375887 C9.92907801,6.80851064 9.5035461,7.87234043 8.65248227,8.72340426 Z" id="Shape"></path>
                </g>
            </g>
            <circle id="Oval" fill="#6E7B88" cx="39.0070922" cy="9.21985816" r="1.41843972"></circle>
            <circle id="Oval" fill="#FFFFFF" cx="39.0070922" cy="25.5319149" r="1.41843972"></circle>
            <circle id="Oval" fill="#000000" cx="39.0070922" cy="41.1347518" r="1.41843972"></circle>
            <g id="noun_Upload_799484" transform="translate(65.957447, 35.460993)" fill="#000000" fill-rule="nonzero">
                <g id="Group">
                    <polygon id="Path" points="7.09219858 12.0567376 7.09219858 7.65957447 8.22695035 8.72340426 9.21985816 7.73049645 6.38297872 4.89361702 3.54609929 7.73049645 4.53900709 8.72340426 5.67375887 7.65957447 5.67375887 12.0567376"></polygon>
                    <rect id="Rectangle" x="0.709219858" y="13.4751773" width="11.3475177" height="1.41843972"></rect>
                    <path d="M2.90780142,10.5673759 C0.992907801,8.65248227 0.992907801,5.46099291 2.90780142,3.54609929 C4.82269504,1.63120567 8.0141844,1.63120567 9.92907801,3.54609929 C11.8439716,5.46099291 11.8439716,8.65248227 9.92907801,10.5673759 L10.9219858,11.5602837 C13.4042553,9.07801418 13.4042553,5.03546099 10.9219858,2.55319149 C8.43971631,0.0709219858 4.39716312,0.0709219858 1.91489362,2.55319149 C-0.567375887,5.03546099 -0.567375887,9.07801418 1.91489362,11.5602837 L2.90780142,10.5673759 Z" id="Path"></path>
                </g>
            </g>
            <g id="noun_Upload_799484" transform="translate(65.957447, 19.148936)" fill="#FFFFFF" fill-rule="nonzero">
                <g id="Group">
                    <polygon id="Path" points="7.09219858 12.0567376 7.09219858 7.65957447 8.22695035 8.72340426 9.21985816 7.73049645 6.38297872 4.89361702 3.54609929 7.73049645 4.53900709 8.72340426 5.67375887 7.65957447 5.67375887 12.0567376"></polygon>
                    <rect id="Rectangle" x="0.709219858" y="13.4751773" width="11.3475177" height="1.41843972"></rect>
                    <path d="M2.90780142,10.5673759 C0.992907801,8.65248227 0.992907801,5.46099291 2.90780142,3.54609929 C4.82269504,1.63120567 8.0141844,1.63120567 9.92907801,3.54609929 C11.8439716,5.46099291 11.8439716,8.65248227 9.92907801,10.5673759 L10.9219858,11.5602837 C13.4042553,9.07801418 13.4042553,5.03546099 10.9219858,2.55319149 C8.43971631,0.0709219858 4.39716312,0.0709219858 1.91489362,2.55319149 C-0.567375887,5.03546099 -0.567375887,9.07801418 1.91489362,11.5602837 L2.90780142,10.5673759 Z" id="Path"></path>
                </g>
            </g>
            <g id="noun_Upload_799484" transform="translate(65.957447, 2.836879)" fill="#6E7B88" fill-rule="nonzero">
                <g id="Group">
                    <polygon id="Path" points="7.09219858 12.0567376 7.09219858 7.65957447 8.22695035 8.72340426 9.21985816 7.73049645 6.38297872 4.89361702 3.54609929 7.73049645 4.53900709 8.72340426 5.67375887 7.65957447 5.67375887 12.0567376"></polygon>
                    <rect id="Rectangle" x="0.709219858" y="13.4751773" width="11.3475177" height="1.41843972"></rect>
                    <path d="M2.90780142,10.5673759 C0.992907801,8.65248227 0.992907801,5.46099291 2.90780142,3.54609929 C4.82269504,1.63120567 8.0141844,1.63120567 9.92907801,3.54609929 C11.8439716,5.46099291 11.8439716,8.65248227 9.92907801,10.5673759 L10.9219858,11.5602837 C13.4042553,9.07801418 13.4042553,5.03546099 10.9219858,2.55319149 C8.43971631,0.0709219858 4.39716312,0.0709219858 1.91489362,2.55319149 C-0.567375887,5.03546099 -0.567375887,9.07801418 1.91489362,11.5602837 L2.90780142,10.5673759 Z" id="Path"></path>
                </g>
            </g>
        </g>
    </g>
</svg>