<?xml version="1.0" encoding="UTF-8"?>
<svg width="84px" height="21px" viewBox="0 0 84 21" version="1.1" xmlns="http://www.w3.org/2000/svg" xmlns:xlink="http://www.w3.org/1999/xlink">
    <!-- Generator: Sketch 58 (84663) - https://sketch.com -->
    <title>DICKY Light</title>
    <desc>Created with Sketch.</desc>
    <g id="DICKY-Light" stroke="none" stroke-width="1" fill="none" fill-rule="evenodd">
        <path d="M16.9804688,8.41357422 C17.1123053,9.02881167 17.1782227,9.64843438 17.1782227,10.2724609 C17.1782227,12.5752068 16.3564535,14.5483316 14.7128906,16.1918945 C14.1767551,16.7456082 13.5659214,17.2311991 12.8803711,17.6486816 C12.1948208,18.0661642 11.4763221,18.389159 10.7248535,18.6176758 C9.97338491,18.8461925 9.21533585,18.9736327 8.45068359,19 L1.77978516,19 C1.7094723,19 1.66552743,18.9626469 1.64794922,18.8879395 C1.63037101,18.813232 1.62158203,18.749512 1.62158203,18.6967773 L1.62158203,1.34716797 C1.62158203,1.26806601 1.64794896,1.21972665 1.70068359,1.20214844 C1.75341823,1.18457022 1.79736311,1.17578125 1.83251953,1.17578125 L8.04199219,1.17578125 C9.14063049,1.22851589 10.1865185,1.44164852 11.1796875,1.81518555 C12.1728565,2.18872257 13.0671347,2.69628585 13.8625488,3.33789062 C14.657963,3.9794954 15.3237278,4.72875548 15.8598633,5.58569336 C16.3959988,6.44263124 16.7695302,7.38524876 16.9804688,8.41357422 Z M13.0649414,7.43798828 C12.5991188,6.65575781 12.0124547,6.071291 11.3049316,5.68457031 C10.5974086,5.29784963 9.84155676,5.0495611 9.03735352,4.93969727 C8.23315028,4.82983344 7.26416583,4.76611337 6.13037109,4.74853516 L5.18115234,4.74853516 L5.18115234,15.4404297 L8.47705078,15.4404297 C8.87256057,15.4404297 9.3471652,15.3503427 9.90087891,15.170166 C10.4545926,14.9899893 10.9907201,14.7373063 11.5092773,14.4121094 C12.0278346,14.0869124 12.4672834,13.6914086 12.8276367,13.2255859 C13.4516633,12.3818317 13.7636719,11.3623107 13.7636719,10.1669922 C13.7636719,9.17382316 13.530764,8.26416429 13.0649414,7.43798828 Z M24.0422671,18.8681641 C24.0422671,18.9560551 23.9983223,19 23.9104312,19 L20.6408999,19 C20.5354307,19 20.4826968,18.9648441 20.4826968,18.8945312 L20.4826968,1.32080078 C20.4826968,1.22412061 20.5354307,1.17578125 20.6408999,1.17578125 L23.9104312,1.17578125 C23.9983223,1.17578125 24.0422671,1.22412061 24.0422671,1.32080078 L24.0422671,18.8681641 Z M43.1802374,2.48095703 L43.1802374,6.68652344 C43.1802374,6.75683629 43.1055311,6.79199219 42.9561163,6.79199219 C42.6133411,6.41406061 42.2288235,6.07568509 41.8025518,5.77685547 C41.3762802,5.47802585 40.923648,5.22534283 40.4446417,5.01879883 C39.9656354,4.81225483 39.4778473,4.66064501 38.9812628,4.56396484 C38.4846783,4.46728467 37.9815095,4.41894531 37.4717413,4.41894531 C36.5225178,4.41894531 35.6611983,4.57275237 34.8877569,4.88037109 C33.903377,5.24951356 33.0925941,5.89330595 32.4553839,6.81176758 C31.8181736,7.7302292 31.4600229,8.74315853 31.380921,9.85058594 C31.380921,10.6591837 31.5237418,11.428219 31.8093878,12.1577148 C32.0950337,12.8872107 32.4905376,13.5134251 32.9959112,14.036377 C33.5012848,14.5593288 34.0791599,14.9526354 34.7295538,15.2163086 C35.5557298,15.5590837 36.4522052,15.7304688 37.4190069,15.7304688 C38.4912779,15.7304688 39.510799,15.5173361 40.4776007,15.0910645 C41.4444024,14.6647928 42.270566,14.0429728 42.9561163,13.2255859 C43.0879529,13.2255859 43.1538702,13.2958977 43.1538702,13.4365234 L43.1538702,17.7080078 C42.3540615,18.1914087 41.4531916,18.5671373 40.4512335,18.8352051 C39.4492753,19.1032728 38.4121763,19.2373047 37.3399053,19.2373047 C36.4434165,19.2373047 35.5535328,19.131837 34.6702276,18.9208984 C33.7869224,18.7099599 32.9761395,18.3935568 32.2378546,17.9716797 C31.5259369,17.5410135 30.8887363,17.0400419 30.3262335,16.46875 C29.7637307,15.8974581 29.2869288,15.2778354 28.8958136,14.6098633 C28.5046983,13.9418912 28.1970842,13.218998 27.972962,12.4411621 C27.7488398,11.6633262 27.6323859,10.8789102 27.6235968,10.0878906 C27.6235968,9.02440875 27.7993762,8.01147942 28.1509405,7.04907227 C28.5025048,6.08666511 29.0078708,5.19897867 29.6670538,4.38598633 C30.3262368,3.57299398 31.11285,2.87207326 32.0269171,2.28320312 C33.503487,1.36913605 35.3667496,0.912109375 37.6167608,0.912109375 C38.4956715,0.929687588 39.5042063,1.06811394 40.6423956,1.32739258 C41.7805849,1.58667122 42.6265237,1.97118886 43.1802374,2.48095703 Z M50.5848092,18.8681641 C50.5848092,18.9560551 50.5408643,19 50.4529733,19 L47.183442,19 C47.0779727,19 47.0252389,18.9648441 47.0252389,18.8945312 L47.0252389,1.32080078 C47.0252389,1.22412061 47.0779727,1.17578125 47.183442,1.17578125 L50.4529733,1.17578125 C50.5408643,1.17578125 50.5848092,1.22412061 50.5848092,1.32080078 L50.5848092,8.12353516 L57.4139108,1.34716797 L62.2786569,1.34716797 C62.2962351,1.34716797 62.305024,1.41747977 62.305024,1.55810547 C59.6155575,4.37061953 56.9612871,7.06004576 54.3421334,9.62646484 L54.3421334,9.85058594 L57.6342644,13.005769 L57.6342644,13.005769 L60.4790963,15.7832031 L60.4790963,15.7832031 L61.7091888,16.996919 C62.3590976,17.6423646 62.9532147,18.2397433 63.4915475,18.7890625 C63.4915475,18.9296882 63.4124467,19 63.2542428,19 L58.4422311,19 L50.9407662,11.762207 L50.9407662,11.762207 C50.8528752,11.6567378 50.7781689,11.6040039 50.7166451,11.6040039 C50.6814887,11.6040039 50.6529245,11.6171874 50.6309518,11.6435547 C50.608979,11.669922 50.5935983,11.6918944 50.5848092,11.7094727 L50.5848092,18.8681641 Z M74.5611584,18.8681641 C74.5611584,18.9560551 74.512819,19 74.4161388,19 L71.1597912,19 C71.0455328,19 70.9884044,18.9648441 70.9884044,18.8945312 L70.9884044,10.8129883 L64.9107677,1.32080078 C64.9107677,1.29443346 64.9173595,1.26367205 64.9305431,1.22851562 C64.9437268,1.1933592 64.9678965,1.17578125 65.0030529,1.17578125 L68.6417248,1.17578125 L72.7681896,7.25341797 L76.8814709,1.17578125 L80.3883068,1.17578125 C80.4322523,1.17578125 80.456422,1.1933592 80.4608166,1.22851562 L80.4674084,1.32080078 L80.4674084,1.32080078 L74.5611584,10.8129883 L74.5611584,18.8681641 Z" id="DICKY" fill="#3D4956" fill-rule="nonzero"></path>
    </g>
</svg>