<?xml version="1.0" encoding="UTF-8"?>
<svg width="165px" height="18px" viewBox="0 0 165 18" version="1.1" xmlns="http://www.w3.org/2000/svg" xmlns:xlink="http://www.w3.org/1999/xlink">
    <!-- Generator: Sketch 58 (84663) - https://sketch.com -->
    <title>Dicky</title>
    <g id="Page-1" stroke="none" stroke-width="1" fill="none" fill-rule="evenodd">
        <g id="Desktop-HD" transform="translate(-301.000000, -42.000000)" fill="#3D4956" fill-rule="nonzero">
            <path d="M307.971191,47.9282227 C308.06071,47.708495 308.105469,47.5091155 308.105469,47.3300781 C308.105469,47.0859363 308.036296,46.8336602 307.897949,46.5732422 C307.72705,46.3209623 307.511395,46.1358242 307.250977,46.0178223 C306.990559,45.8998204 306.7098,45.8225099 306.408691,45.7858887 C306.107583,45.7492674 305.786135,45.730957 305.444336,45.730957 L304.797363,45.730957 L304.797363,48.9780273 L305.847168,48.9780273 C306.97022,48.9129229 307.678221,48.5629915 307.971191,47.9282227 Z M308.850098,53.4458008 C308.793131,53.0226216 308.597821,52.6869316 308.26416,52.4387207 C307.9305,52.1905098 307.560223,52.0460614 307.15332,52.0053711 L306.533474,51.9918077 C306.065087,51.9845739 305.486386,51.980957 304.797363,51.980957 L304.797363,55.7041016 L306.896973,55.7041016 C307.53988,55.6796874 308.048501,55.5047217 308.422852,55.1791992 C308.715822,54.9106432 308.874512,54.4996772 308.898926,53.9462891 L308.891113,53.801758 C308.883301,53.7109379 308.869629,53.5922859 308.850098,53.4458008 Z M301.501465,42.6303711 C301.501465,42.5408524 301.55843,42.4960938 301.672363,42.4960938 L306.70166,42.4960938 C307.279463,42.5205079 307.875567,42.650715 308.48999,42.8867188 C309.104414,43.1227225 309.65169,43.460447 310.131836,43.8999023 C310.611982,44.3393577 310.970051,44.8561168 311.206055,45.4501953 C311.417644,46.0198596 311.523438,46.5691705 311.523438,47.0981445 C311.523438,47.6271185 311.419679,48.1459122 311.212158,48.654541 C311.004638,49.1631699 310.701499,49.612791 310.302734,50.003418 C310.595705,50.2231456 310.890705,50.4835597 311.187744,50.784668 C311.484783,51.0857762 311.765542,51.5109836 312.030029,52.0603027 C312.294516,52.6096219 312.426758,53.2626915 312.426758,54.0195312 C312.426758,54.4996769 312.369792,54.9838843 312.255859,55.472168 C312.109374,56.1883174 311.726891,56.8291801 311.108398,57.3947754 C310.489906,57.9603707 309.80225,58.3693021 309.04541,58.621582 C308.573403,58.7762052 307.985436,58.8779294 307.281494,58.9267578 C306.577552,58.9755862 305.749516,59 304.797363,59 L301.599121,59 C301.566569,59 301.54419,58.9877931 301.531982,58.9633789 L301.501465,58.9023438 L301.501465,42.6303711 Z M329.431152,52.347168 C329.414876,53.0470413 329.282635,53.7387661 329.034424,54.4223633 C328.786213,55.1059604 328.446454,55.7386852 328.015137,56.3205566 C327.583819,56.902428 327.087405,57.4110493 326.525879,57.8464355 C325.964353,58.2818218 325.333662,58.6256498 324.633789,58.8779297 C323.754878,59.1627618 322.904464,59.3051758 322.08252,59.3051758 C320.308422,59.3051758 318.774421,58.7802787 317.480469,57.7304688 C316.642248,57.0224574 315.970868,56.2534221 315.466309,55.4233398 C314.961749,54.5932576 314.697266,53.7102911 314.672852,52.7744141 L314.672852,42.6303711 C314.672852,42.5896808 314.689127,42.557129 314.72168,42.5327148 C314.754232,42.5083007 314.782715,42.4960938 314.807129,42.4960938 L317.797852,42.4960938 C317.919922,42.4960938 317.980957,42.5489904 317.980957,42.6547852 L317.980957,52.7744141 C318.013509,53.2220074 318.172199,53.6736631 318.457031,54.1293945 C318.741863,54.585126 319.104002,54.979816 319.543457,55.3134766 C319.982912,55.6471371 320.410154,55.8668615 320.825195,55.9726562 C321.362307,56.0947272 321.781411,56.1557617 322.08252,56.1557617 C323.221848,56.1557617 324.20247,55.7529337 325.024414,54.9472656 C325.862634,54.1090453 326.281738,52.933113 326.281738,51.4194336 L326.260936,46.8775579 C326.258528,45.6424104 326.257324,44.2266832 326.257324,42.6303711 C326.257324,42.5815427 326.275635,42.5469565 326.312256,42.5266113 C326.348877,42.5062662 326.379394,42.4960938 326.403809,42.4960938 L329.223633,42.4960938 C329.378256,42.4960938 329.455566,42.5489904 329.455566,42.6547852 L329.438877,44.5987529 L329.438877,44.5987529 L329.431152,48.8803711 L329.431152,48.8803711 L329.431152,52.347168 Z M341.748047,56.4487305 C341.381834,57.042809 340.948489,57.5493957 340.447998,57.9685059 C339.947507,58.387616 339.367679,58.7110991 338.708496,58.9389648 C338.049313,59.1668306 337.304692,59.2807617 336.474609,59.2807617 C335.571285,59.2156572 334.735111,58.9593121 333.966064,58.5117188 C333.197018,58.0641254 332.5765,57.4537799 332.104492,56.6806641 C331.81966,56.1923804 331.677246,55.7895524 331.677246,55.472168 L332.013988,55.2595941 C332.195313,55.1479509 332.418854,55.0134197 332.684611,54.8559994 L333.553956,54.3449704 C333.871826,54.1589356 334.16992,53.9853524 334.448242,53.8242188 L334.541321,54.0256347 L334.541321,54.0256347 L334.625244,54.2392578 C334.678142,54.3857429 334.743245,54.5423983 334.820557,54.7092285 C334.897868,54.8760588 334.98942,55.0245762 335.095215,55.1547852 C335.624189,55.7651398 336.352534,56.0703125 337.280273,56.0703125 C337.744143,55.9970699 338.159178,55.7529318 338.525391,55.3378906 C338.891603,54.9228495 339.074707,54.4752628 339.074707,53.9951172 C339.074707,53.7184231 339.017741,53.4783539 338.903809,53.2749023 C338.667805,52.835447 338.348391,52.4916191 337.945557,52.2434082 C337.60027,52.030656 337.16381,51.8268749 336.636167,51.6320604 L335.908507,51.3748013 C335.484313,51.2214505 335.156251,51.0898443 334.924316,50.9799805 C334.053544,50.5405251 333.349612,49.9159383 332.8125,49.1062012 C332.275388,48.2964641 332.006836,47.4033252 332.006836,46.4267578 C332.014974,45.8408174 332.165526,45.2548857 332.458496,44.6689453 C332.751466,44.0830049 333.142087,43.5804871 333.630371,43.161377 C334.118655,42.7422668 334.65169,42.4554044 335.229492,42.3007812 C335.677086,42.1868484 336.149086,42.1298828 336.645508,42.1298828 C337.581385,42.1298828 338.446041,42.3516417 339.239502,42.795166 C340.032963,43.2386904 340.653481,43.8754841 341.101074,44.7055664 L341.099548,44.7620239 L341.099548,44.7620239 L341.094971,44.8093262 C341.090902,44.8378094 341.084798,44.8683267 341.07666,44.9008789 L340.734365,45.1330618 C340.425453,45.3398336 340.057375,45.579821 339.630127,45.8530273 L339.151671,46.1500252 C338.82611,46.3442798 338.609213,46.4527994 338.500977,46.4755859 C337.955726,45.5722611 337.406416,45.1206055 336.853027,45.1206055 C336.307777,45.1206055 335.888673,45.256916 335.595703,45.529541 C335.302733,45.8021661 335.15625,46.141925 335.15625,46.5488281 C335.15625,46.9882834 335.331216,47.3789045 335.681152,47.7207031 C336.083986,47.9917006 336.696102,48.2808216 337.517516,48.5880734 L337.799072,48.6911621 C338.763433,49.0370297 339.522295,49.3625473 340.075684,49.6677246 C340.629072,49.9729019 341.105141,50.4428679 341.503906,51.0776367 C342.081709,51.9890996 342.370605,52.9982041 342.370605,54.1049805 C342.370605,54.9920292 342.163088,55.7732714 341.748047,56.4487305 Z M363.330078,56.4487305 C362.963865,57.042809 362.53052,57.5493957 362.030029,57.9685059 C361.529539,58.387616 360.94971,58.7110991 360.290527,58.9389648 C359.631344,59.1668306 358.886723,59.2807617 358.056641,59.2807617 C357.153316,59.2156572 356.317143,58.9593121 355.548096,58.5117188 C354.779049,58.0641254 354.158531,57.4537799 353.686523,56.6806641 C353.401691,56.1923804 353.259277,55.7895524 353.259277,55.472168 L353.59602,55.2595941 C353.777344,55.1479509 354.000885,55.0134197 354.266643,54.8559994 L355.135987,54.3449704 C355.453857,54.1589356 355.751952,53.9853524 356.030273,53.8242188 L356.123352,54.0256347 L356.123352,54.0256347 L356.207275,54.2392578 C356.260173,54.3857429 356.325276,54.5423983 356.402588,54.7092285 C356.479899,54.8760588 356.571451,55.0245762 356.677246,55.1547852 C357.20622,55.7651398 357.934566,56.0703125 358.862305,56.0703125 C359.326174,55.9970699 359.741209,55.7529318 360.107422,55.3378906 C360.473635,54.9228495 360.656738,54.4752628 360.656738,53.9951172 C360.656738,53.7184231 360.599773,53.4783539 360.48584,53.2749023 C360.249836,52.835447 359.930422,52.4916191 359.527588,52.2434082 C359.182302,52.030656 358.745842,51.8268749 358.218198,51.6320604 L357.490538,51.3748013 C357.066344,51.2214505 356.738282,51.0898443 356.506348,50.9799805 C355.635575,50.5405251 354.931643,49.9159383 354.394531,49.1062012 C353.857419,48.2964641 353.588867,47.4033252 353.588867,46.4267578 C353.597005,45.8408174 353.747557,45.2548857 354.040527,44.6689453 C354.333498,44.0830049 354.724119,43.5804871 355.212402,43.161377 C355.700686,42.7422668 356.233721,42.4554044 356.811523,42.3007812 C357.259117,42.1868484 357.731117,42.1298828 358.227539,42.1298828 C359.163416,42.1298828 360.028072,42.3516417 360.821533,42.795166 C361.614994,43.2386904 362.235512,43.8754841 362.683105,44.7055664 L362.677002,44.8093262 L362.677002,44.8093262 L362.658691,44.9008789 L362.658691,44.9008789 L362.316396,45.1330618 C362.007484,45.3398336 361.639406,45.579821 361.212158,45.8530273 L360.733702,46.1500252 C360.408141,46.3442798 360.191244,46.4527994 360.083008,46.4755859 C359.537758,45.5722611 358.988447,45.1206055 358.435059,45.1206055 C357.889808,45.1206055 357.470705,45.256916 357.177734,45.529541 C356.884764,45.8021661 356.738281,46.141925 356.738281,46.5488281 C356.738281,46.9882834 356.913247,47.3789045 357.263184,47.7207031 C357.666018,47.9917006 358.278134,48.2808216 359.099547,48.5880734 L359.381104,48.6911621 C360.345464,49.0370297 361.104327,49.3625473 361.657715,49.6677246 C362.211103,49.9729019 362.687172,50.4428679 363.085938,51.0776367 C363.66374,51.9890996 363.952637,52.9982041 363.952637,54.1049805 C363.952637,54.9920292 363.745119,55.7732714 363.330078,56.4487305 Z M376.733398,50.2963867 C376.399738,50.857913 375.990806,51.3583962 375.506592,51.7978516 C375.022377,52.2373069 374.481204,52.5770659 373.883057,52.8171387 C373.284909,53.0572115 372.66846,53.1772461 372.033691,53.1772461 L369.53125,53.1772461 L369.516998,54.0067993 C369.510223,54.9073127 369.506836,56.5310178 369.506836,58.8779297 C369.498698,58.8942058 369.474284,58.9186196 369.433594,58.9511719 C369.392903,58.9837241 369.352214,59 369.311523,59 L366.381836,59 C366.316731,59 366.271973,58.9816896 366.247559,58.9450684 C366.223144,58.9084471 366.210938,58.8779298 366.210938,58.8535156 L366.210938,42.6791992 C366.210938,42.6140947 366.23942,42.5673016 366.296387,42.5388184 C366.353353,42.5103351 366.398112,42.4960938 366.430664,42.4960938 L367.724609,42.4655762 L367.724609,42.4655762 C368.120662,42.4574381 368.527561,42.4520128 368.945312,42.4493001 L370.077177,42.448622 C370.781117,42.4526909 371.297369,42.4659151 371.625942,42.4882948 L371.728516,42.4960938 C372.477217,42.5530602 373.13639,42.6649568 373.706055,42.8317871 C374.275719,42.9986174 374.810789,43.2692039 375.311279,43.6435547 C375.81177,44.0179055 376.236977,44.5102509 376.586914,45.1206055 C377.06706,45.9344116 377.307129,46.8784126 377.307129,47.9526367 C377.307129,48.8803757 377.115887,49.6616179 376.733398,50.2963867 Z M373.986816,47.1713867 C373.628742,46.2273716 372.713224,45.6943365 371.240234,45.5722656 L369.665527,45.5722656 C369.559733,45.5722656 369.506836,45.6048174 369.506836,45.6699219 L369.506836,50.1499023 L371.435547,50.1499023 C372.452805,50.0847979 373.160805,49.79997 373.55957,49.2954102 C373.925783,48.8885071 374.108887,48.4083687 374.108887,47.8549805 C374.108887,47.659667 374.068197,47.4318047 373.986816,47.1713867 Z M396.240234,50.7480469 C396.240234,51.9036516 396.016441,53.0104114 395.568848,54.0683594 C395.121254,55.1263074 394.50684,56.0499635 393.725586,56.8393555 C392.944332,57.6287474 392.026779,58.2451964 390.9729,58.6887207 C389.919021,59.1322451 388.814296,59.3540039 387.658691,59.3540039 C386.519363,59.3540039 385.420741,59.1322451 384.362793,58.6887207 C383.304845,58.2451964 382.379154,57.622644 381.585693,56.8210449 C380.792232,56.0194459 380.173749,55.0957897 379.730225,54.0500488 C379.2867,53.0043079 379.064941,51.9036516 379.064941,50.7480469 C379.064941,49.6005802 379.2867,48.5019584 379.730225,47.4521484 C380.173749,46.4023385 380.788163,45.4847858 381.573486,44.6994629 C382.358809,43.91414 383.2845,43.297691 384.350586,42.8500977 C385.416672,42.4025043 386.519363,42.1787109 387.658691,42.1787109 C389.204923,42.1787109 390.6372,42.5632286 391.955566,43.3322754 C393.273932,44.1013222 394.317623,45.1470474 395.08667,46.4694824 C395.855717,47.7919174 396.240234,49.2180913 396.240234,50.7480469 Z M392.834473,50.7236328 C392.834473,50.0237595 392.700197,49.3564485 392.431641,48.7216797 C392.163085,48.0869109 391.788739,47.5274276 391.308594,47.0432129 C390.828448,46.5589982 390.273034,46.184653 389.642334,45.920166 C389.011634,45.655679 388.342289,45.5234375 387.634277,45.5234375 C386.6984,45.5234375 385.83171,45.7574033 385.03418,46.2253418 C384.23665,46.6932803 383.603925,47.3280396 383.135986,48.1296387 C382.668048,48.9312377 382.434082,49.7958938 382.434082,50.7236328 C382.434082,51.6676479 382.670082,52.5424764 383.14209,53.3481445 C383.614097,54.1538126 384.246822,54.7885719 385.040283,55.2524414 C385.833744,55.7163109 386.6984,55.9482422 387.634277,55.9482422 C388.342289,55.9482422 389.015703,55.8098972 389.654541,55.5332031 C390.293379,55.256509 390.848793,54.8801293 391.320801,54.4040527 C391.792808,53.9279761 392.163085,53.3725618 392.431641,52.737793 C392.700197,52.1030242 392.834473,51.4316442 392.834473,50.7236328 Z M410.913086,45.6699219 C410.913086,45.7594406 410.864258,45.8041992 410.766602,45.8041992 L405.993652,45.8041992 L406.017388,54.0771739 L406.017388,54.0771739 L406.018066,58.8779297 C406.018066,58.9593103 405.969239,59 405.871582,59 L402.844238,59 C402.738443,59 402.685547,58.9674482 402.685547,58.9023438 L402.687073,54.0073242 L402.687073,54.0073242 L402.703857,49.1306152 C402.707926,48.044184 402.71403,46.9353898 402.722168,45.8041992 L397.888184,45.8041992 C397.790527,45.8041992 397.741699,45.7675785 397.741699,45.6943359 L397.741699,42.6303711 C397.741699,42.5408524 397.790527,42.4960938 397.888184,42.4960938 L410.791016,42.4960938 C410.872396,42.4960938 410.913086,42.5327145 410.913086,42.605957 L410.913086,45.6699219 Z M425.085449,45.6699219 C425.085449,45.7594406 425.036622,45.8041992 424.938965,45.8041992 L420.166016,45.8041992 L420.169922,48.2338855 L420.169922,48.2338855 L420.19026,54.6905771 L420.19026,54.6905771 L420.19043,58.8779297 C420.19043,58.9593103 420.141602,59 420.043945,59 L417.016602,59 C416.910807,59 416.85791,58.9674482 416.85791,58.9023438 L416.859436,54.0073242 L416.859436,54.0073242 L416.876221,49.1306152 C416.88029,48.044184 416.886393,46.9353898 416.894531,45.8041992 L412.060547,45.8041992 C411.96289,45.8041992 411.914062,45.7675785 411.914062,45.6943359 L411.914062,42.6303711 C411.914062,42.5408524 411.96289,42.4960938 412.060547,42.4960938 L424.963379,42.4960938 C425.04476,42.4960938 425.085449,42.5327145 425.085449,42.605957 L425.085449,45.6699219 Z M430.383301,58.8779297 C430.383301,58.9593103 430.342611,59 430.26123,59 L427.233887,59 C427.13623,59 427.087402,58.9674482 427.087402,58.9023438 L427.087402,42.6303711 C427.087402,42.5408524 427.13623,42.4960938 427.233887,42.4960938 L430.26123,42.4960938 C430.342611,42.4960938 430.383301,42.5408524 430.383301,42.6303711 L430.383301,58.8779297 Z M448.181152,59 L445.056152,59 L436.682129,47.6474609 L436.682129,58.7802734 C436.682129,58.8697921 436.655681,58.9287922 436.602783,58.9572754 C436.549886,58.9857586 436.503093,59 436.462402,59 L433.508301,59 C433.42692,59 433.38623,58.9348965 433.38623,58.8046875 L433.38623,42.6303711 C433.38623,42.5652666 433.392334,42.5266114 433.404541,42.5144043 C433.416748,42.5021972 433.451334,42.4960938 433.508301,42.4960938 L436.682129,42.4960938 L445.056152,53.6533203 L445.056152,42.6547852 C445.056152,42.630371 445.06429,42.5978192 445.080566,42.5571289 C445.096843,42.5164386 445.141601,42.4960938 445.214844,42.4960938 L448.132324,42.4960938 C448.229981,42.4960938 448.29305,42.5164386 448.321533,42.5571289 C448.350016,42.5978192 448.364258,42.630371 448.364258,42.6547852 L448.364258,58.8535156 C448.364258,58.9186201 448.341878,58.9593098 448.297119,58.9755859 C448.25236,58.9918621 448.213705,59 448.181152,59 Z M465.319824,57.9746094 C464.774574,58.2431654 464.190677,58.4730622 463.568115,58.6643066 C462.945554,58.8555511 462.314863,58.9999995 461.676025,59.0976562 C461.037188,59.195313 460.384118,59.2441406 459.716797,59.2441406 C457.18586,59.2441406 455.143237,58.5361399 453.588867,57.1201172 C452.962236,56.5504529 452.427167,55.934004 451.983643,55.270752 C451.540118,54.6074999 451.200359,53.8913613 450.964355,53.1223145 C450.728352,52.3532676 450.610352,51.561853 450.610352,50.7480469 C450.610352,50.2272109 450.671386,49.6779 450.793457,49.1000977 C450.915528,48.489743 451.10677,47.9078804 451.367188,47.3544922 C451.627605,46.801104 451.949054,46.2721379 452.331543,45.7675781 C452.714032,45.2630183 453.149412,44.8032247 453.637695,44.3881836 C454.125979,43.9731425 454.642738,43.62728 455.187988,43.3505859 C456.701668,42.6018843 458.410635,42.2275391 460.314941,42.2275391 C460.941572,42.2275391 461.499021,42.2600908 461.987305,42.3251953 C462.524417,42.3902998 463.094073,42.500162 463.696289,42.6547852 C464.298506,42.8094083 464.815265,42.992512 465.246582,43.2041016 L465.29541,43.3017578 L465.304656,45.6015919 C465.308508,45.9901933 465.313564,46.3222142 465.319824,46.5976562 C465.29541,46.6627607 465.270996,46.6953125 465.246582,46.6953125 C465.222168,46.6953125 465.177155,46.6781465 465.111542,46.6438142 L465.039062,46.6037598 C464.933268,46.5427243 464.860026,46.5081381 464.819336,46.5 C464.078772,46.101235 463.27922,45.7899588 462.420654,45.5661621 C461.562089,45.3423654 460.725916,45.2304688 459.912109,45.2304688 C458.382154,45.2304688 457.09229,45.6292278 456.04248,46.4267578 C455.358883,46.9557318 454.842124,47.5965945 454.492188,48.3493652 C454.142251,49.1021359 453.967285,49.9098264 453.967285,50.7724609 C453.967285,51.1468118 454.007975,51.5577777 454.089355,52.0053711 C454.162598,52.3634458 454.284667,52.7194807 454.455566,53.0734863 C454.626466,53.427492 454.840087,53.767251 455.096436,54.0927734 C455.352784,54.4182959 455.643716,54.7153307 455.969238,54.9838867 C456.294761,55.2524427 456.620278,55.4680981 456.945801,55.6308594 C457.792159,56.0459005 458.691401,56.253418 459.643555,56.253418 C460.481775,56.253418 461.271155,56.0784523 462.011719,55.7285156 L462.011719,52.7011719 L461.962891,52.6279297 L459.545898,52.6279297 C459.505208,52.6279297 459.480794,52.6238607 459.472656,52.6157227 C459.467231,52.6102973 459.463614,52.5994467 459.461806,52.5831706 L459.460449,49.3808594 C459.460449,49.3401691 459.480794,49.3198242 459.521484,49.3198242 L465.185547,49.3198242 C465.242513,49.3198242 465.279134,49.3259277 465.29541,49.3381348 C465.311686,49.3503419 465.319824,49.3889971 465.319824,49.4541016 L465.319824,57.9746094 Z" id="DICKY"></path>
        </g>
    </g>
</svg>