<?xml version="1.0" encoding="UTF-8"?>
<svg width="68px" height="18px" viewBox="0 0 68 18" version="1.1" xmlns="http://www.w3.org/2000/svg" xmlns:xlink="http://www.w3.org/1999/xlink">
    <!-- Generator: Sketch 58 (84663) - https://sketch.com -->
    <title>DICKY</title>
    <desc>Created with Sketch.</desc>
    <g id="Page-1" stroke="none" stroke-width="1" fill="none" fill-rule="evenodd">
        <path d="M14.09375,7.58984375 C14.2109381,8.13672148 14.2695312,8.68749723 14.2695312,9.2421875 C14.2695312,11.2890727 13.5390698,13.0429614 12.078125,14.5039062 C11.6015601,14.9960962 11.0585968,15.4277325 10.4492188,15.7988281 C9.8398407,16.1699237 9.20117521,16.4570302 8.53320312,16.6601562 C7.86523104,16.8632823 7.19140965,16.9765624 6.51171875,17 L0.58203125,17 C0.519530938,17 0.480468828,16.9667972 0.46484375,16.9003906 C0.449218672,16.833984 0.44140625,16.777344 0.44140625,16.7304688 L0.44140625,1.30859375 C0.44140625,1.2382809 0.464843516,1.19531258 0.51171875,1.1796875 C0.558593984,1.16406242 0.597656094,1.15625 0.62890625,1.15625 L6.1484375,1.15625 C7.12500488,1.20312523 8.05468309,1.39257646 8.9375,1.72460938 C9.82031691,2.05664229 10.6152308,2.50780965 11.3222656,3.078125 C12.0293004,3.64844035 12.6210914,4.31444932 13.0976562,5.07617188 C13.5742211,5.83789443 13.9062491,6.67577668 14.09375,7.58984375 Z M10.6132812,6.72265625 C10.1992167,6.02734027 9.67773752,5.50781422 9.04882812,5.1640625 C8.41991873,4.82031078 7.74805045,4.59960986 7.03320312,4.50195312 C6.3183558,4.40429639 5.45703629,4.34765633 4.44921875,4.33203125 L3.60546875,4.33203125 L3.60546875,13.8359375 L6.53515625,13.8359375 C6.88672051,13.8359375 7.30859129,13.7558602 7.80078125,13.5957031 C8.29297121,13.4355461 8.76952895,13.2109389 9.23046875,12.921875 C9.69140855,12.6328111 10.0820296,12.2812521 10.4023438,11.8671875 C10.957034,11.1171837 11.234375,10.2109428 11.234375,9.1484375 C11.234375,8.26562059 11.0273458,7.45703492 10.6132812,6.72265625 Z M19.5898438,16.8828125 C19.5898438,16.9609379 19.5507816,17 19.4726562,17 L16.5664062,17 C16.4726558,17 16.4257812,16.9687503 16.4257812,16.90625 L16.4257812,1.28515625 C16.4257812,1.19921832 16.4726558,1.15625 16.5664062,1.15625 L19.4726562,1.15625 C19.5507816,1.15625 19.5898438,1.19921832 19.5898438,1.28515625 L19.5898438,16.8828125 Z M35.8203125,2.31640625 L35.8203125,6.0546875 C35.8203125,6.11718781 35.7539069,6.1484375 35.6210938,6.1484375 C35.3164047,5.81249832 34.9746113,5.51172008 34.5957031,5.24609375 C34.216795,4.98046742 33.8144553,4.75586029 33.3886719,4.57226562 C32.9628885,4.38867096 32.5292991,4.25390668 32.0878906,4.16796875 C31.6464822,4.08203082 31.199221,4.0390625 30.7460938,4.0390625 C29.9023395,4.0390625 29.1367222,4.17577988 28.4492188,4.44921875 C27.5742144,4.77734539 26.8535185,5.34960529 26.2871094,6.16601562 C25.7207003,6.98242596 25.4023441,7.88280758 25.3320312,8.8671875 C25.3320312,9.58594109 25.4589831,10.269528 25.7128906,10.9179688 C25.9667981,11.5664095 26.3183571,12.1230446 26.7675781,12.5878906 C27.2167991,13.0527367 27.7304659,13.4023426 28.3085938,13.6367188 C29.0429724,13.9414078 29.8398395,14.09375 30.6992188,14.09375 C31.6523485,14.09375 32.5585895,13.9042988 33.4179688,13.5253906 C34.277348,13.1464825 35.0117157,12.5937536 35.6210938,11.8671875 C35.7382818,11.8671875 35.796875,11.9296869 35.796875,12.0546875 L35.796875,15.8515625 C35.0859339,16.2812521 34.2851607,16.6152332 33.3945312,16.8535156 C32.5039018,17.0917981 31.582036,17.2109375 30.6289062,17.2109375 C29.8320273,17.2109375 29.0410196,17.1171884 28.2558594,16.9296875 C27.4706992,16.7421866 26.7500033,16.4609394 26.09375,16.0859375 C25.4609343,15.7031231 24.8945337,15.257815 24.3945312,14.75 C23.8945288,14.242185 23.4707049,13.6914092 23.1230469,13.0976562 C22.7753889,12.5039033 22.5019541,11.8613316 22.3027344,11.1699219 C22.1035146,10.4785122 22,9.78125352 21.9921875,9.078125 C21.9921875,8.13280777 22.1484359,7.23242615 22.4609375,6.37695312 C22.7734391,5.5214801 23.2226533,4.73242549 23.8085938,4.00976562 C24.3945342,3.28710576 25.0937459,2.66406512 25.90625,2.140625 C27.2187566,1.32812094 28.87499,0.921875 30.875,0.921875 C31.6562539,0.937500078 32.5527293,1.06054572 33.5644531,1.29101562 C34.5761769,1.52148553 35.3281225,1.86327898 35.8203125,2.31640625 Z M41.6210938,16.8828125 C41.6210938,16.9609379 41.5820316,17 41.5039062,17 L38.5976562,17 C38.5039058,17 38.4570312,16.9687503 38.4570312,16.90625 L38.4570312,1.28515625 C38.4570312,1.19921832 38.5039058,1.15625 38.5976562,1.15625 L41.5039062,1.15625 C41.5820316,1.15625 41.6210938,1.19921832 41.6210938,1.28515625 L41.6210938,7.33203125 L47.6914062,1.30859375 L52.015625,1.30859375 C52.0312501,1.30859375 52.0390625,1.37109313 52.0390625,1.49609375 C49.6484255,3.99610625 47.2890741,6.38670734 44.9609375,8.66796875 L44.9609375,8.8671875 L47.5703121,11.365885 L47.5703121,11.365885 L48.8890376,12.6458329 L48.8890376,12.6458329 L50.4160156,14.140625 C51.435552,15.14063 52.3281212,16.0312461 53.09375,16.8125 C53.09375,16.9375006 53.0234382,17 52.8828125,17 L48.6054688,17 L41.9375,10.5664062 L41.9375,10.5664062 C41.8593746,10.4726558 41.792969,10.4257812 41.7382812,10.4257812 C41.7070311,10.4257812 41.6816407,10.4374999 41.6621094,10.4609375 C41.642578,10.4843751 41.6289063,10.5039062 41.6210938,10.5195312 L41.6210938,16.8828125 Z M62.1523438,16.8828125 C62.1523438,16.9609379 62.1093754,17 62.0234375,17 L59.1289062,17 C59.0273432,17 58.9765625,16.9687503 58.9765625,16.90625 L58.9765625,9.72265625 L53.5742188,1.28515625 C53.5742188,1.26171863 53.5800781,1.23437516 53.5917969,1.203125 C53.6035157,1.17187484 53.6249998,1.15625 53.65625,1.15625 L56.890625,1.15625 L60.5585938,6.55859375 L64.2148438,1.15625 L67.3320312,1.15625 C67.3710939,1.15625 67.3925781,1.17187484 67.3964844,1.203125 L67.4023438,1.28515625 L67.4023438,1.28515625 L62.1523438,9.72265625 L62.1523438,16.8828125 Z" id="DICKY" fill="#FFFFFF" fill-rule="nonzero"></path>
    </g>
</svg>