<?xml version="1.0" encoding="UTF-8"?>
<svg width="14px" height="14px" viewBox="0 0 14 14" version="1.1" xmlns="http://www.w3.org/2000/svg" xmlns:xlink="http://www.w3.org/1999/xlink">
    <!-- Generator: Sketch 58 (84663) - https://sketch.com -->
    <title>Shape</title>
    <desc>Created with Sketch.</desc>
    <g id="Page-1" stroke="none" stroke-width="1" fill="none" fill-rule="evenodd">
        <g id="Group-2" transform="translate(-101.000000, -4.163121)" fill="#979DA4" fill-rule="nonzero">
            <path d="M114.23,14.3831206 L111.64,12.2831206 C111.99,11.5131206 112.2,10.6731206 112.2,9.76312057 C112.2,6.68312057 109.68,4.16312057 106.6,4.16312057 C103.52,4.16312057 101,6.68312057 101,9.76312057 C101,12.8431206 103.52,15.3631206 106.6,15.3631206 C107.51,15.3631206 108.35,15.1531206 109.05,14.8031206 L111.15,17.3931206 C111.5,17.8831206 112.06,18.1631206 112.69,18.1631206 C112.76,18.1631206 112.76,18.1631206 112.83,18.1631206 C113.39,18.1631206 113.95,17.9531206 114.37,17.5331206 C114.79,17.1131206 115,16.5531206 115,15.9231206 C115,15.2931206 114.65,14.7331206 114.23,14.3831206 Z M102.4,9.76312057 C102.4,7.45312057 104.29,5.56312057 106.6,5.56312057 C108.91,5.56312057 110.8,7.45312057 110.8,9.76312057 C110.8,12.0731206 108.91,13.9631206 106.6,13.9631206 C104.29,13.9631206 102.4,12.0731206 102.4,9.76312057 Z M113.39,16.5531206 C113.25,16.6931206 113.04,16.7631206 112.83,16.7631206 C112.62,16.7631206 112.41,16.6231206 112.27,16.4831206 L110.24,13.9631206 C110.45,13.7531206 110.66,13.6131206 110.8,13.4031206 L113.32,15.4331206 C113.46,15.5731206 113.6,15.7831206 113.6,15.9931206 C113.6,16.2031206 113.53,16.4131206 113.39,16.5531206 Z" id="Shape"></path>
        </g>
    </g>
</svg>