<?xml version="1.0" encoding="UTF-8"?>
<svg width="256px" height="48px" viewBox="0 0 256 48" version="1.1" xmlns="http://www.w3.org/2000/svg" xmlns:xlink="http://www.w3.org/1999/xlink">
    <!-- Generator: Sketch 58 (84663) - https://sketch.com -->
    <title>Group 2</title>
    <desc>Created with Sketch.</desc>
    <g id="Page-1" stroke="none" stroke-width="1" fill="none" fill-rule="evenodd">
        <g id="Group-2" transform="translate(0.000000, -3.163121)">
            <g id="noun_link_793604" transform="translate(0.000000, 3.709220)" fill="#6E7B88" fill-rule="nonzero">
                <g id="Group">
                    <path d="M3.90070922,12.7659574 L1.41843972,10.2836879 L6.31205674,5.39007092 L7.80141844,6.87943262 L8.79432624,5.88652482 L7.30496454,4.39716312 C6.73758865,3.82978723 5.81560284,3.82978723 5.31914894,4.39716312 L0.425531915,9.29078014 C-0.141843972,9.85815603 -0.141843972,10.7092199 0.425531915,11.2765957 L2.90780142,13.7588652 C3.19148936,14.0425532 3.54609929,14.1843972 3.90070922,14.1843972 C4.25531915,14.1843972 4.60992908,14.0425532 4.89361702,13.7588652 L6.80851064,11.8439716 L5.81560284,10.8510638 L3.90070922,12.7659574 Z" id="Path"></path>
                    <path d="M13.7588652,2.90780142 L11.2765957,0.425531915 C10.7092199,-0.141843972 9.85815603,-0.141843972 9.29078014,0.425531915 L7.37588652,2.34042553 L8.36879433,3.33333333 L10.2836879,1.41843972 L12.7659574,3.90070922 L7.87234043,8.79432624 L6.38297872,7.30496454 L5.39007092,8.29787234 L6.87943262,9.78723404 C7.16312057,10.070922 7.5177305,10.212766 7.87234043,10.212766 C8.22695035,10.212766 8.58156028,10.070922 8.86524823,9.78723404 L13.7588652,4.89361702 C14.3262411,4.39716312 14.3262411,3.4751773 13.7588652,2.90780142 Z" id="Path"></path>
                </g>
            </g>
            <g id="noun_avatar_794116-(1)" transform="translate(17.021277, 3.709220)" fill="#6E7B88" fill-rule="nonzero">
                <g id="Group">
                    <path d="M12.5531915,8.93617021 C10.9219858,7.30496454 8.72340426,6.38297872 6.38297872,6.38297872 C4.04255319,6.38297872 1.84397163,7.30496454 0.212765957,8.93617021 L0,9.14893617 L0,14.1843972 L12.7659574,14.1843972 L12.7659574,9.14893617 L12.5531915,8.93617021 Z M11.3475177,12.7659574 L1.41843972,12.7659574 L1.41843972,9.78723404 C2.76595745,8.5106383 4.53900709,7.80141844 6.38297872,7.80141844 C8.22695035,7.80141844 10,8.5106383 11.3475177,9.71631206 L11.3475177,12.7659574 Z" id="Shape"></path>
                    <path d="M6.38297872,5.67375887 C7.94326241,5.67375887 9.21985816,4.39716312 9.21985816,2.83687943 C9.21985816,1.27659574 7.94326241,0 6.38297872,0 C4.82269504,0 3.54609929,1.27659574 3.54609929,2.83687943 C3.54609929,4.39716312 4.82269504,5.67375887 6.38297872,5.67375887 Z M6.38297872,1.41843972 C7.16312057,1.41843972 7.80141844,2.05673759 7.80141844,2.83687943 C7.80141844,3.61702128 7.16312057,4.25531915 6.38297872,4.25531915 C5.60283688,4.25531915 4.96453901,3.61702128 4.96453901,2.83687943 C4.96453901,2.05673759 5.60283688,1.41843972 6.38297872,1.41843972 Z" id="Shape"></path>
                </g>
            </g>
            <g id="noun_Plus_794419" transform="translate(48.936170, 3.709220)" fill="#6E7B88" fill-rule="nonzero">
                <g id="Group">
                    <path d="M7.09219858,0 C3.19148936,0 0,3.19148936 0,7.09219858 C0,10.9929078 3.19148936,14.1843972 7.09219858,14.1843972 C10.9929078,14.1843972 14.1843972,10.9929078 14.1843972,7.09219858 C14.1843972,3.19148936 10.9929078,0 7.09219858,0 Z M7.09219858,12.7659574 C3.97163121,12.7659574 1.41843972,10.212766 1.41843972,7.09219858 C1.41843972,3.97163121 3.97163121,1.41843972 7.09219858,1.41843972 C10.212766,1.41843972 12.7659574,3.97163121 12.7659574,7.09219858 C12.7659574,10.212766 10.212766,12.7659574 7.09219858,12.7659574 Z" id="Shape"></path>
                    <polygon id="Path" points="7.80141844 3.54609929 6.38297872 3.54609929 6.38297872 6.38297872 3.54609929 6.38297872 3.54609929 7.80141844 6.38297872 7.80141844 6.38297872 10.6382979 7.80141844 10.6382979 7.80141844 7.80141844 10.6382979 7.80141844 10.6382979 6.38297872 7.80141844 6.38297872"></polygon>
                </g>
            </g>
            <g id="noun_Plus_794419" transform="translate(89.361702, 11.378137) rotate(-315.000000) translate(-89.361702, -11.378137) translate(81.861702, 3.878137)" fill="#6E7B88" fill-rule="nonzero">
                <g id="Group">
                    <path d="M7.09219858,0 C3.19148936,0 0,3.19148936 0,7.09219858 C0,10.9929078 3.19148936,14.1843972 7.09219858,14.1843972 C10.9929078,14.1843972 14.1843972,10.9929078 14.1843972,7.09219858 C14.1843972,3.19148936 10.9929078,0 7.09219858,0 Z M7.09219858,12.7659574 C3.97163121,12.7659574 1.41843972,10.212766 1.41843972,7.09219858 C1.41843972,3.97163121 3.97163121,1.41843972 7.09219858,1.41843972 C10.212766,1.41843972 12.7659574,3.97163121 12.7659574,7.09219858 C12.7659574,10.212766 10.212766,12.7659574 7.09219858,12.7659574 Z" id="Shape"></path>
                    <polygon id="Path" points="7.80141844 3.54609929 6.38297872 3.54609929 6.38297872 6.38297872 3.54609929 6.38297872 3.54609929 7.80141844 6.38297872 7.80141844 6.38297872 10.6382979 7.80141844 10.6382979 7.80141844 7.80141844 10.6382979 7.80141844 10.6382979 6.38297872 7.80141844 6.38297872"></polygon>
                </g>
            </g>
            <g id="noun_link_793604" transform="translate(0.000000, 20.021277)" fill="#FFFFFF" fill-rule="nonzero">
                <g id="Group">
                    <path d="M3.90070922,12.7659574 L1.41843972,10.2836879 L6.31205674,5.39007092 L7.80141844,6.87943262 L8.79432624,5.88652482 L7.30496454,4.39716312 C6.73758865,3.82978723 5.81560284,3.82978723 5.31914894,4.39716312 L0.425531915,9.29078014 C-0.141843972,9.85815603 -0.141843972,10.7092199 0.425531915,11.2765957 L2.90780142,13.7588652 C3.19148936,14.0425532 3.54609929,14.1843972 3.90070922,14.1843972 C4.25531915,14.1843972 4.60992908,14.0425532 4.89361702,13.7588652 L6.80851064,11.8439716 L5.81560284,10.8510638 L3.90070922,12.7659574 Z" id="Path"></path>
                    <path d="M13.7588652,2.90780142 L11.2765957,0.425531915 C10.7092199,-0.141843972 9.85815603,-0.141843972 9.29078014,0.425531915 L7.37588652,2.34042553 L8.36879433,3.33333333 L10.2836879,1.41843972 L12.7659574,3.90070922 L7.87234043,8.79432624 L6.38297872,7.30496454 L5.39007092,8.29787234 L6.87943262,9.78723404 C7.16312057,10.070922 7.5177305,10.212766 7.87234043,10.212766 C8.22695035,10.212766 8.58156028,10.070922 8.86524823,9.78723404 L13.7588652,4.89361702 C14.3262411,4.39716312 14.3262411,3.4751773 13.7588652,2.90780142 Z" id="Path"></path>
                </g>
            </g>
            <g id="noun_avatar_794116-(1)" transform="translate(17.021277, 20.021277)" fill="#FFFFFF" fill-rule="nonzero">
                <g id="Group">
                    <path d="M12.5531915,8.93617021 C10.9219858,7.30496454 8.72340426,6.38297872 6.38297872,6.38297872 C4.04255319,6.38297872 1.84397163,7.30496454 0.212765957,8.93617021 L0,9.14893617 L0,14.1843972 L12.7659574,14.1843972 L12.7659574,9.14893617 L12.5531915,8.93617021 Z M11.3475177,12.7659574 L1.41843972,12.7659574 L1.41843972,9.78723404 C2.76595745,8.5106383 4.53900709,7.80141844 6.38297872,7.80141844 C8.22695035,7.80141844 10,8.5106383 11.3475177,9.71631206 L11.3475177,12.7659574 Z" id="Shape"></path>
                    <path d="M6.38297872,5.67375887 C7.94326241,5.67375887 9.21985816,4.39716312 9.21985816,2.83687943 C9.21985816,1.27659574 7.94326241,0 6.38297872,0 C4.82269504,0 3.54609929,1.27659574 3.54609929,2.83687943 C3.54609929,4.39716312 4.82269504,5.67375887 6.38297872,5.67375887 Z M6.38297872,1.41843972 C7.16312057,1.41843972 7.80141844,2.05673759 7.80141844,2.83687943 C7.80141844,3.61702128 7.16312057,4.25531915 6.38297872,4.25531915 C5.60283688,4.25531915 4.96453901,3.61702128 4.96453901,2.83687943 C4.96453901,2.05673759 5.60283688,1.41843972 6.38297872,1.41843972 Z" id="Shape"></path>
                </g>
            </g>
            <g id="noun_Plus_794419" transform="translate(48.936170, 20.021277)" fill="#FFFFFF" fill-rule="nonzero">
                <g id="Group">
                    <path d="M7.09219858,0 C3.19148936,0 0,3.19148936 0,7.09219858 C0,10.9929078 3.19148936,14.1843972 7.09219858,14.1843972 C10.9929078,14.1843972 14.1843972,10.9929078 14.1843972,7.09219858 C14.1843972,3.19148936 10.9929078,0 7.09219858,0 Z M7.09219858,12.7659574 C3.97163121,12.7659574 1.41843972,10.212766 1.41843972,7.09219858 C1.41843972,3.97163121 3.97163121,1.41843972 7.09219858,1.41843972 C10.212766,1.41843972 12.7659574,3.97163121 12.7659574,7.09219858 C12.7659574,10.212766 10.212766,12.7659574 7.09219858,12.7659574 Z" id="Shape"></path>
                    <polygon id="Path" points="7.80141844 3.54609929 6.38297872 3.54609929 6.38297872 6.38297872 3.54609929 6.38297872 3.54609929 7.80141844 6.38297872 7.80141844 6.38297872 10.6382979 7.80141844 10.6382979 7.80141844 7.80141844 10.6382979 7.80141844 10.6382979 6.38297872 7.80141844 6.38297872"></polygon>
                </g>
            </g>
            <g id="noun_Plus_794419" transform="translate(89.361702, 27.113475) rotate(-315.000000) translate(-89.361702, -27.113475) translate(82.269504, 20.021277)" fill="#FFFFFF" fill-rule="nonzero">
                <g id="Group">
                    <path d="M7.09219858,0 C3.19148936,0 0,3.19148936 0,7.09219858 C0,10.9929078 3.19148936,14.1843972 7.09219858,14.1843972 C10.9929078,14.1843972 14.1843972,10.9929078 14.1843972,7.09219858 C14.1843972,3.19148936 10.9929078,0 7.09219858,0 Z M7.09219858,12.7659574 C3.97163121,12.7659574 1.41843972,10.212766 1.41843972,7.09219858 C1.41843972,3.97163121 3.97163121,1.41843972 7.09219858,1.41843972 C10.212766,1.41843972 12.7659574,3.97163121 12.7659574,7.09219858 C12.7659574,10.212766 10.212766,12.7659574 7.09219858,12.7659574 Z" id="Shape"></path>
                    <polygon id="Path" points="7.80141844 3.54609929 6.38297872 3.54609929 6.38297872 6.38297872 3.54609929 6.38297872 3.54609929 7.80141844 6.38297872 7.80141844 6.38297872 10.6382979 7.80141844 10.6382979 7.80141844 7.80141844 10.6382979 7.80141844 10.6382979 6.38297872 7.80141844 6.38297872"></polygon>
                </g>
            </g>
            <g id="noun_link_793604" transform="translate(0.000000, 36.333333)" fill="#000000" fill-rule="nonzero">
                <g id="Group">
                    <path d="M3.90070922,12.7659574 L1.41843972,10.2836879 L6.31205674,5.39007092 L7.80141844,6.87943262 L8.79432624,5.88652482 L7.30496454,4.39716312 C6.73758865,3.82978723 5.81560284,3.82978723 5.31914894,4.39716312 L0.425531915,9.29078014 C-0.141843972,9.85815603 -0.141843972,10.7092199 0.425531915,11.2765957 L2.90780142,13.7588652 C3.19148936,14.0425532 3.54609929,14.1843972 3.90070922,14.1843972 C4.25531915,14.1843972 4.60992908,14.0425532 4.89361702,13.7588652 L6.80851064,11.8439716 L5.81560284,10.8510638 L3.90070922,12.7659574 Z" id="Path"></path>
                    <path d="M13.7588652,2.90780142 L11.2765957,0.425531915 C10.7092199,-0.141843972 9.85815603,-0.141843972 9.29078014,0.425531915 L7.37588652,2.34042553 L8.36879433,3.33333333 L10.2836879,1.41843972 L12.7659574,3.90070922 L7.87234043,8.79432624 L6.38297872,7.30496454 L5.39007092,8.29787234 L6.87943262,9.78723404 C7.16312057,10.070922 7.5177305,10.212766 7.87234043,10.212766 C8.22695035,10.212766 8.58156028,10.070922 8.86524823,9.78723404 L13.7588652,4.89361702 C14.3262411,4.39716312 14.3262411,3.4751773 13.7588652,2.90780142 Z" id="Path"></path>
                </g>
            </g>
            <g id="noun_avatar_794116-(1)" transform="translate(17.021277, 36.333333)" fill="#000000" fill-rule="nonzero">
                <g id="Group">
                    <path d="M12.5531915,8.93617021 C10.9219858,7.30496454 8.72340426,6.38297872 6.38297872,6.38297872 C4.04255319,6.38297872 1.84397163,7.30496454 0.212765957,8.93617021 L0,9.14893617 L0,14.1843972 L12.7659574,14.1843972 L12.7659574,9.14893617 L12.5531915,8.93617021 Z M11.3475177,12.7659574 L1.41843972,12.7659574 L1.41843972,9.78723404 C2.76595745,8.5106383 4.53900709,7.80141844 6.38297872,7.80141844 C8.22695035,7.80141844 10,8.5106383 11.3475177,9.71631206 L11.3475177,12.7659574 Z" id="Shape"></path>
                    <path d="M6.38297872,5.67375887 C7.94326241,5.67375887 9.21985816,4.39716312 9.21985816,2.83687943 C9.21985816,1.27659574 7.94326241,0 6.38297872,0 C4.82269504,0 3.54609929,1.27659574 3.54609929,2.83687943 C3.54609929,4.39716312 4.82269504,5.67375887 6.38297872,5.67375887 Z M6.38297872,1.41843972 C7.16312057,1.41843972 7.80141844,2.05673759 7.80141844,2.83687943 C7.80141844,3.61702128 7.16312057,4.25531915 6.38297872,4.25531915 C5.60283688,4.25531915 4.96453901,3.61702128 4.96453901,2.83687943 C4.96453901,2.05673759 5.60283688,1.41843972 6.38297872,1.41843972 Z" id="Shape"></path>
                </g>
            </g>
            <g id="noun_Plus_794419" transform="translate(48.936170, 36.333333)" fill="#000000" fill-rule="nonzero">
                <g id="Group">
                    <path d="M7.09219858,0 C3.19148936,0 0,3.19148936 0,7.09219858 C0,10.9929078 3.19148936,14.1843972 7.09219858,14.1843972 C10.9929078,14.1843972 14.1843972,10.9929078 14.1843972,7.09219858 C14.1843972,3.19148936 10.9929078,0 7.09219858,0 Z M7.09219858,12.7659574 C3.97163121,12.7659574 1.41843972,10.212766 1.41843972,7.09219858 C1.41843972,3.97163121 3.97163121,1.41843972 7.09219858,1.41843972 C10.212766,1.41843972 12.7659574,3.97163121 12.7659574,7.09219858 C12.7659574,10.212766 10.212766,12.7659574 7.09219858,12.7659574 Z" id="Shape"></path>
                    <polygon id="Path" points="7.80141844 3.54609929 6.38297872 3.54609929 6.38297872 6.38297872 3.54609929 6.38297872 3.54609929 7.80141844 6.38297872 7.80141844 6.38297872 10.6382979 7.80141844 10.6382979 7.80141844 7.80141844 10.6382979 7.80141844 10.6382979 6.38297872 7.80141844 6.38297872"></polygon>
                </g>
            </g>
            <g id="noun_Plus_794419" transform="translate(89.361702, 43.425532) rotate(-315.000000) translate(-89.361702, -43.425532) translate(82.269504, 36.333333)" fill="#000000" fill-rule="nonzero">
                <g id="Group">
                    <path d="M7.09219858,0 C3.19148936,0 0,3.19148936 0,7.09219858 C0,10.9929078 3.19148936,14.1843972 7.09219858,14.1843972 C10.9929078,14.1843972 14.1843972,10.9929078 14.1843972,7.09219858 C14.1843972,3.19148936 10.9929078,0 7.09219858,0 Z M7.09219858,12.7659574 C3.97163121,12.7659574 1.41843972,10.212766 1.41843972,7.09219858 C1.41843972,3.97163121 3.97163121,1.41843972 7.09219858,1.41843972 C10.212766,1.41843972 12.7659574,3.97163121 12.7659574,7.09219858 C12.7659574,10.212766 10.212766,12.7659574 7.09219858,12.7659574 Z" id="Shape"></path>
                    <polygon id="Path" points="7.80141844 3.54609929 6.38297872 3.54609929 6.38297872 6.38297872 3.54609929 6.38297872 3.54609929 7.80141844 6.38297872 7.80141844 6.38297872 10.6382979 7.80141844 10.6382979 7.80141844 7.80141844 10.6382979 7.80141844 10.6382979 6.38297872 7.80141844 6.38297872"></polygon>
                </g>
            </g>
            <g id="noun_map-pin_792168" transform="translate(33.333333, 36.333333)" fill="#000000" fill-rule="nonzero">
                <g id="Group">
                    <path d="M9.71631206,1.63120567 C8.58156028,0.567375887 7.16312057,0 5.67375887,0 C4.18439716,0 2.76595745,0.567375887 1.63120567,1.63120567 C0.567375887,2.69503546 0,4.11347518 0,5.67375887 C0,7.16312057 0.567375887,8.65248227 1.63120567,9.64539007 L5.67375887,14.1843972 L9.71631206,9.64539007 C10.7801418,8.58156028 11.3475177,7.16312057 11.3475177,5.67375887 C11.3475177,4.11347518 10.7801418,2.69503546 9.71631206,1.63120567 Z M8.65248227,8.72340426 L5.67375887,12.0567376 L2.69503546,8.65248227 C1.84397163,7.87234043 1.41843972,6.80851064 1.41843972,5.67375887 C1.41843972,4.53900709 1.84397163,3.4751773 2.69503546,2.69503546 C3.4751773,1.84397163 4.53900709,1.41843972 5.67375887,1.41843972 C6.80851064,1.41843972 7.87234043,1.84397163 8.65248227,2.69503546 C9.5035461,3.4751773 9.92907801,4.53900709 9.92907801,5.67375887 C9.92907801,6.80851064 9.5035461,7.87234043 8.65248227,8.72340426 Z" id="Shape"></path>
                </g>
            </g>
            <g id="noun_map-pin_792168" transform="translate(33.333333, 20.021277)" fill="#FFFFFF" fill-rule="nonzero">
                <g id="Group">
                    <path d="M9.71631206,1.63120567 C8.58156028,0.567375887 7.16312057,0 5.67375887,0 C4.18439716,0 2.76595745,0.567375887 1.63120567,1.63120567 C0.567375887,2.69503546 0,4.11347518 0,5.67375887 C0,7.16312057 0.567375887,8.65248227 1.63120567,9.64539007 L5.67375887,14.1843972 L9.71631206,9.64539007 C10.7801418,8.58156028 11.3475177,7.16312057 11.3475177,5.67375887 C11.3475177,4.11347518 10.7801418,2.69503546 9.71631206,1.63120567 Z M8.65248227,8.72340426 L5.67375887,12.0567376 L2.69503546,8.65248227 C1.84397163,7.87234043 1.41843972,6.80851064 1.41843972,5.67375887 C1.41843972,4.53900709 1.84397163,3.4751773 2.69503546,2.69503546 C3.4751773,1.84397163 4.53900709,1.41843972 5.67375887,1.41843972 C6.80851064,1.41843972 7.87234043,1.84397163 8.65248227,2.69503546 C9.5035461,3.4751773 9.92907801,4.53900709 9.92907801,5.67375887 C9.92907801,6.80851064 9.5035461,7.87234043 8.65248227,8.72340426 Z" id="Shape"></path>
                </g>
            </g>
            <g id="noun_map-pin_792168" transform="translate(33.333333, 3.709220)" fill="#6E7B88" fill-rule="nonzero">
                <g id="Group">
                    <path d="M9.71631206,1.63120567 C8.58156028,0.567375887 7.16312057,0 5.67375887,0 C4.18439716,0 2.76595745,0.567375887 1.63120567,1.63120567 C0.567375887,2.69503546 0,4.11347518 0,5.67375887 C0,7.16312057 0.567375887,8.65248227 1.63120567,9.64539007 L5.67375887,14.1843972 L9.71631206,9.64539007 C10.7801418,8.58156028 11.3475177,7.16312057 11.3475177,5.67375887 C11.3475177,4.11347518 10.7801418,2.69503546 9.71631206,1.63120567 Z M8.65248227,8.72340426 L5.67375887,12.0567376 L2.69503546,8.65248227 C1.84397163,7.87234043 1.41843972,6.80851064 1.41843972,5.67375887 C1.41843972,4.53900709 1.84397163,3.4751773 2.69503546,2.69503546 C3.4751773,1.84397163 4.53900709,1.41843972 5.67375887,1.41843972 C6.80851064,1.41843972 7.87234043,1.84397163 8.65248227,2.69503546 C9.5035461,3.4751773 9.92907801,4.53900709 9.92907801,5.67375887 C9.92907801,6.80851064 9.5035461,7.87234043 8.65248227,8.72340426 Z" id="Shape"></path>
                </g>
            </g>
            <circle id="Oval" fill="#6E7B88" cx="39.0070922" cy="9.38297872" r="1.41843972"></circle>
            <circle id="Oval" fill="#FFFFFF" cx="39.0070922" cy="25.6950355" r="1.41843972"></circle>
            <circle id="Oval" fill="#000000" cx="39.0070922" cy="41.2978723" r="1.41843972"></circle>
            <g id="noun_Upload_799484" transform="translate(65.957447, 35.624113)" fill="#000000" fill-rule="nonzero">
                <g id="Group">
                    <polygon id="Path" points="7.09219858 12.0567376 7.09219858 7.65957447 8.22695035 8.72340426 9.21985816 7.73049645 6.38297872 4.89361702 3.54609929 7.73049645 4.53900709 8.72340426 5.67375887 7.65957447 5.67375887 12.0567376"></polygon>
                    <rect id="Rectangle" x="0.709219858" y="13.4751773" width="11.3475177" height="1.41843972"></rect>
                    <path d="M2.90780142,10.5673759 C0.992907801,8.65248227 0.992907801,5.46099291 2.90780142,3.54609929 C4.82269504,1.63120567 8.0141844,1.63120567 9.92907801,3.54609929 C11.8439716,5.46099291 11.8439716,8.65248227 9.92907801,10.5673759 L10.9219858,11.5602837 C13.4042553,9.07801418 13.4042553,5.03546099 10.9219858,2.55319149 C8.43971631,0.0709219858 4.39716312,0.0709219858 1.91489362,2.55319149 C-0.567375887,5.03546099 -0.567375887,9.07801418 1.91489362,11.5602837 L2.90780142,10.5673759 Z" id="Path"></path>
                </g>
            </g>
            <g id="noun_Upload_799484" transform="translate(65.957447, 19.312057)" fill="#FFFFFF" fill-rule="nonzero">
                <g id="Group">
                    <polygon id="Path" points="7.09219858 12.0567376 7.09219858 7.65957447 8.22695035 8.72340426 9.21985816 7.73049645 6.38297872 4.89361702 3.54609929 7.73049645 4.53900709 8.72340426 5.67375887 7.65957447 5.67375887 12.0567376"></polygon>
                    <rect id="Rectangle" x="0.709219858" y="13.4751773" width="11.3475177" height="1.41843972"></rect>
                    <path d="M2.90780142,10.5673759 C0.992907801,8.65248227 0.992907801,5.46099291 2.90780142,3.54609929 C4.82269504,1.63120567 8.0141844,1.63120567 9.92907801,3.54609929 C11.8439716,5.46099291 11.8439716,8.65248227 9.92907801,10.5673759 L10.9219858,11.5602837 C13.4042553,9.07801418 13.4042553,5.03546099 10.9219858,2.55319149 C8.43971631,0.0709219858 4.39716312,0.0709219858 1.91489362,2.55319149 C-0.567375887,5.03546099 -0.567375887,9.07801418 1.91489362,11.5602837 L2.90780142,10.5673759 Z" id="Path"></path>
                </g>
            </g>
            <g id="noun_Upload_799484" transform="translate(65.957447, 3.000000)" fill="#6E7B88" fill-rule="nonzero">
                <g id="Group">
                    <polygon id="Path" points="7.09219858 12.0567376 7.09219858 7.65957447 8.22695035 8.72340426 9.21985816 7.73049645 6.38297872 4.89361702 3.54609929 7.73049645 4.53900709 8.72340426 5.67375887 7.65957447 5.67375887 12.0567376"></polygon>
                    <rect id="Rectangle" x="0.709219858" y="13.4751773" width="11.3475177" height="1.41843972"></rect>
                    <path d="M2.90780142,10.5673759 C0.992907801,8.65248227 0.992907801,5.46099291 2.90780142,3.54609929 C4.82269504,1.63120567 8.0141844,1.63120567 9.92907801,3.54609929 C11.8439716,5.46099291 11.8439716,8.65248227 9.92907801,10.5673759 L10.9219858,11.5602837 C13.4042553,9.07801418 13.4042553,5.03546099 10.9219858,2.55319149 C8.43971631,0.0709219858 4.39716312,0.0709219858 1.91489362,2.55319149 C-0.567375887,5.03546099 -0.567375887,9.07801418 1.91489362,11.5602837 L2.90780142,10.5673759 Z" id="Path"></path>
                </g>
            </g>
            <path d="M114.23,14.3831206 L111.64,12.2831206 C111.99,11.5131206 112.2,10.6731206 112.2,9.76312057 C112.2,6.68312057 109.68,4.16312057 106.6,4.16312057 C103.52,4.16312057 101,6.68312057 101,9.76312057 C101,12.8431206 103.52,15.3631206 106.6,15.3631206 C107.51,15.3631206 108.35,15.1531206 109.05,14.8031206 L111.15,17.3931206 C111.5,17.8831206 112.06,18.1631206 112.69,18.1631206 C112.76,18.1631206 112.76,18.1631206 112.83,18.1631206 C113.39,18.1631206 113.95,17.9531206 114.37,17.5331206 C114.79,17.1131206 115,16.5531206 115,15.9231206 C115,15.2931206 114.65,14.7331206 114.23,14.3831206 Z M102.4,9.76312057 C102.4,7.45312057 104.29,5.56312057 106.6,5.56312057 C108.91,5.56312057 110.8,7.45312057 110.8,9.76312057 C110.8,12.0731206 108.91,13.9631206 106.6,13.9631206 C104.29,13.9631206 102.4,12.0731206 102.4,9.76312057 Z M113.39,16.5531206 C113.25,16.6931206 113.04,16.7631206 112.83,16.7631206 C112.62,16.7631206 112.41,16.6231206 112.27,16.4831206 L110.24,13.9631206 C110.45,13.7531206 110.66,13.6131206 110.8,13.4031206 L113.32,15.4331206 C113.46,15.5731206 113.6,15.7831206 113.6,15.9931206 C113.6,16.2031206 113.53,16.4131206 113.39,16.5531206 Z" id="Shape" fill="#979DA4" fill-rule="nonzero"></path>
            <polygon id="Path" fill="#FFFFFF" fill-rule="nonzero" points="134.25 17.1631206 134.25 9.18292255 136.25 11.1136156 138 9.31163542 133 4.16312057 128 9.31163542 129.75 11.1136156 131.75 9.18292255 131.75 17.1631206"></polygon>
            <polygon id="Path" fill="#FFFFFF" fill-rule="nonzero" transform="translate(157.000000, 10.663121) rotate(-180.000000) translate(-157.000000, -10.663121) " points="158.25 17.1631206 158.25 9.18292255 160.25 11.1136156 162 9.31163542 157 4.16312057 152 9.31163542 153.75 11.1136156 155.75 9.18292255 155.75 17.1631206"></polygon>
            <polygon id="Path" fill="#FFFFFF" fill-rule="nonzero" transform="translate(180.000000, 10.663121) rotate(-90.000000) translate(-180.000000, -10.663121) " points="181.25 17.1631206 181.25 9.18292255 183.25 11.1136156 185 9.31163542 180 4.16312057 175 9.31163542 176.75 11.1136156 178.75 9.18292255 178.75 17.1631206"></polygon>
            <polygon id="Path" fill="#FFFFFF" fill-rule="nonzero" transform="translate(206.000000, 10.663121) rotate(-270.000000) translate(-206.000000, -10.663121) " points="207.25 17.1631206 207.25 9.18292255 209.25 11.1136156 211 9.31163542 206 4.16312057 201 9.31163542 202.75 11.1136156 204.75 9.18292255 204.75 17.1631206"></polygon>
            <polygon id="Path" fill="#FFFFFF" fill-rule="nonzero" transform="translate(230.000000, 11.163121) rotate(-315.000000) translate(-230.000000, -11.163121) " points="231.2 5.16312057 228.8 5.16312057 228.8 9.96312057 224 9.96312057 224 12.3631206 228.8 12.3631206 228.8 17.1631206 231.2 17.1631206 231.2 12.3631206 236 12.3631206 236 9.96312057 231.2 9.96312057"></polygon>
            <g id="noun_arrows_793306" transform="translate(248.000000, 7.163121)" fill="#FFFFFF" fill-rule="nonzero">
                <path d="M4,0 C1.73333333,0 0,1.73333333 0,4 C0,6.26666667 1.73333333,8 4,8 C6.26666667,8 8,6.26666667 8,4 C8,1.73333333 6.26666667,0 4,0 Z M4,5.33333333 C3.2,5.33333333 2.66666667,4.8 2.66666667,4 C2.66666667,3.2 3.2,2.66666667 4,2.66666667 C4.8,2.66666667 5.33333333,3.2 5.33333333,4 C5.33333333,4.8 4.8,5.33333333 4,5.33333333 Z" id="Shape"></path>
            </g>
        </g>
    </g>
</svg>