<svg version="1" xmlns="http://www.w3.org/2000/svg" width="1333.333" height="1333.333" viewBox="0 0 1000.000000 1000.000000"><path d="M0 500v500h1000V0H0v500zm553-318c17.7 1.7 44.9 5.8 60.3 9l14 3h49.1c41.2 0 50.1.3 55.1 1.6 11.8 3 21.6 10.8 26.8 21.3l3.2 6.6.3 70.7.3 70.8h18.6c21.9 0 25 .7 31.4 7 7.8 7.5 7.9 8 7.9 61.7 0 31.4-.4 47.1-1.1 48.5-3.9 7.3-28.4 8.1-36.2 1-1.8-1.6-1.9-3.8-1.6-46.8.2-36.1 0-45.5-1-46.8-1.7-2-7.4-3.6-13.3-3.6H762l-.2 179.2-.3 179.3-2.8 5.7c-6.3 12.8-23.3 21.7-41.4 21.8H712v16.5c0 18.4-1 22.2-6.9 26.4-6.6 4.7-9.6 5.1-40.5 5.1-17.2 0-30.6-.4-32.9-1.1-2.1-.5-5.3-2.4-7.3-4.1-6.3-5.5-6.8-7.5-7.2-26.1l-.4-16.7H383v15.3c0 8.3-.4 16.8-1 18.6-1.4 4.9-7.5 10.8-13.1 12.6-3.9 1.3-9.6 1.5-35 1.3-34.2-.3-35.1-.5-41.3-8.2l-3.1-3.8-.3-17.9-.3-17.9h-3.3c-4.2 0-12.8-2.6-19-5.7-6.7-3.4-14.2-11.2-17.4-18.1l-2.7-5.7-.3-178.3L246 386h-4.3c-5.2 0-11.4 1.7-12.4 3.3-.4.6-.6 21.7-.4 46.7.3 44.6.2 45.6-1.7 47.4-3.4 3-9.3 4.5-18.2 4.5-9.3.1-16-2.1-17.9-5.7-.7-1.4-1.1-17.1-1.1-48.5 0-52.1.2-53.6 6.8-60.9 6.3-7 9.6-7.8 30.7-7.8h18.4l.3-70.3c.3-56.9.6-70.9 1.7-73.7 4.2-10.7 13.4-19.5 25-24.2 5.5-2.3 6.3-2.3 62.1-2.8l56.5-.5 15-3.2c18.3-3.9 38.4-6.8 57-8.3 7.7-.6 16-1.2 18.5-1.4 8.5-.7 59.5.3 71 1.4z"/><path d="M343.5 241.6C336 244.3 330 252.5 330 260c0 4.5 3 10.8 6.6 14.2 6.6 6.1-3.3 5.8 168.4 5.8 171.7 0 161.8.3 168.4-5.8 3.6-3.4 6.6-9.7 6.6-14.2s-3-10.8-6.6-14.2c-6.6-6.1 3.4-5.8-168.8-5.7-134.8 0-157.7.2-161.1 1.5zM288.3 331.9c-8.4 3.9-7.8-6.2-8.1 123.5l-.2 114.9 3.9 3.7c9.7 9.2 46 17 100.6 21.4 64.5 5.3 150.2 5.9 220 1.6 67.4-4.3 114.9-13.8 123.5-24.7l2.2-2.8-.7-70c-1.4-162.3-1.3-160.6-3-163.1-.8-1.3-2.7-3.2-4.2-4.1-2.6-1.7-14.1-1.8-216.3-2-208.1-.3-213.6-.2-217.7 1.6zM286.1 631.7c-8.8 3.1-16.1 13.6-16.1 23.3 0 13.4 11.8 25 25.4 25 5.2 0 13.1-3.7 17.3-8 5-5.1 6.8-9.6 6.8-17 0-10.3-5.1-18-15-22.6-5.8-2.8-11.9-3-18.4-.7zM705.5 632.4c-9.9 4.6-15 12.3-15 22.6s5.1 18 15 22.6c9.1 4.3 19.7 2.3 27-5.1 9.8-9.8 9.8-25.2 0-35-7.3-7.4-17.9-9.4-27-5.1zM357.9 672.2c-4.3 2.4-7.9 8.3-7.9 12.8 0 7.1 7.7 15 14.6 15 7.6 0 15.4-7.6 15.4-15 0-5-3.7-10.7-8.5-13-5.3-2.5-9.1-2.5-13.6.2zM638 671.8c-4.3 2.3-8 8.5-8 13.2 0 4.7 3.8 10.9 8 13.1 7 3.8 14.7 1.4 19.7-6 7.8-11.6-7.3-27.1-19.7-20.3zM412.8 701c-14.4 4.4-17.1 18.6-4.9 25.8l4.6 2.7 94.9.3c105.3.3 102.1.5 108.4-6.1 6.5-6.7 4.9-15.4-3.7-20.5l-4.6-2.7-96-.2c-52.8-.1-97.2.2-98.7.7z"/></svg>